<?xml version="1.0" encoding="UTF-8" standalone="no"?>
<svg
   xmlns:dc="http://purl.org/dc/elements/1.1/"
   xmlns:cc="http://creativecommons.org/ns#"
   xmlns:rdf="http://www.w3.org/1999/02/22-rdf-syntax-ns#"
   xmlns:svg="http://www.w3.org/2000/svg"
   xmlns="http://www.w3.org/2000/svg"
   viewBox="0 0 265.87601 188.87601"
   height="188.87601"
   width="265.87601"
   xml:space="preserve"
   id="svg2"
   version="1.1"><metadata
     id="metadata8"><rdf:RDF><cc:Work
         rdf:about=""><dc:format>image/svg+xml</dc:format><dc:type
           rdf:resource="http://purl.org/dc/dcmitype/StillImage" /></cc:Work></rdf:RDF></metadata><defs
     id="defs6"><clipPath
       id="clipPath18"
       clipPathUnits="userSpaceOnUse"><path
         id="path16"
         d="M 0,141.657 H 199.407 V 0 H 0 Z" /></clipPath></defs><g
     transform="matrix(1.3333333,0,0,-1.3333333,0,188.876)"
     id="g10"><g
       id="g12"><g
         clip-path="url(#clipPath18)"
         id="g14"><g
           transform="translate(140.7372,0.5)"
           id="g20"><path
             id="path22"
             style="fill:none;stroke:#231f20;stroke-width:0.40000001;stroke-linecap:butt;stroke-linejoin:miter;stroke-miterlimit:10;stroke-dasharray:none;stroke-opacity:1"
             d="M 0,0 V 137.396" /></g><g
           transform="translate(140.7372,137.1784)"
           id="g24"><path
             id="path26"
             style="fill:#231f20;fill-opacity:1;fill-rule:nonzero;stroke:none"
             d="m 0,0 -1.441,-0.877 -0.033,0.05 0.934,2.35 C -0.36,2.341 -0.18,3.16 0,3.979 0.18,3.16 0.36,2.341 0.54,1.523 l 0.934,-2.35 -0.025,-0.05 z" /></g><g
           transform="translate(2.009,64.5387)"
           id="g28"><path
             id="path30"
             style="fill:none;stroke:#231f20;stroke-width:0.40000001;stroke-linecap:butt;stroke-linejoin:miter;stroke-miterlimit:10;stroke-dasharray:none;stroke-opacity:1"
             d="M 0,0 H 193.637" /></g><g
           transform="translate(194.9283,64.5387)"
           id="g32"><path
             id="path34"
             style="fill:#231f20;fill-opacity:1;fill-rule:nonzero;stroke:none"
             d="m 0,0 -0.877,1.441 0.05,0.033 2.35,-0.934 C 2.341,0.36 3.16,0.18 3.979,0 3.16,-0.18 2.341,-0.36 1.523,-0.54 l -2.35,-0.934 -0.05,0.025 z" /></g><g
           transform="translate(164.6925,64.5387)"
           id="g36"><path
             id="path38"
             style="fill:none;stroke:#231f20;stroke-width:0.69999999;stroke-linecap:butt;stroke-linejoin:miter;stroke-miterlimit:10;stroke-dasharray:none;stroke-opacity:1"
             d="m 0,0 c 0,-30.946 -34.432,-56.034 -76.905,-56.034 -42.473,0 -76.904,25.088 -76.904,56.034 0,30.947 34.431,56.034 76.904,56.034 C -34.432,56.034 0,30.947 0,0 Z" /></g><g
           transform="translate(152.0184,95.3621)"
           id="g40"><path
             id="path42"
             style="fill:none;stroke:#231f20;stroke-width:0.40000001;stroke-linecap:butt;stroke-linejoin:miter;stroke-miterlimit:10;stroke-dasharray:none;stroke-opacity:1"
             d="M 0,0 -11.281,-30.823" /></g><g
           transform="translate(143.7524,72.7753)"
           id="g44"><path
             id="path46"
             style="fill:none;stroke:#231f20;stroke-width:0.40000001;stroke-linecap:butt;stroke-linejoin:miter;stroke-miterlimit:10;stroke-dasharray:none;stroke-opacity:1"
             d="M 0,0 C 3.357,-1.229 5.753,-4.453 5.753,-8.237" /></g><g
           transform="translate(154.5311,95.3625)"
           id="g48"><path
             id="path50"
             style="fill:#ffffff;fill-opacity:1;fill-rule:nonzero;stroke:none"
             d="m 0,0 c 0,-1.388 -1.125,-2.513 -2.513,-2.513 -1.388,0 -2.512,1.125 -2.512,2.513 0,1.387 1.124,2.512 2.512,2.512 C -1.125,2.512 0,1.387 0,0" /></g><g
           transform="translate(154.5311,95.3625)"
           id="g52"><path
             id="path54"
             style="fill:none;stroke:#231f20;stroke-width:0.40000001;stroke-linecap:butt;stroke-linejoin:miter;stroke-miterlimit:10;stroke-dasharray:none;stroke-opacity:1"
             d="m 0,0 c 0,-1.388 -1.125,-2.513 -2.513,-2.513 -1.388,0 -2.512,1.125 -2.512,2.513 0,1.387 1.124,2.512 2.512,2.512 C -1.125,2.512 0,1.387 0,0 Z" /></g><g
           transform="translate(143.2499,64.5387)"
           id="g56"><path
             id="path58"
             style="fill:#ffffff;fill-opacity:1;fill-rule:nonzero;stroke:none"
             d="m 0,0 c 0,-1.389 -1.125,-2.513 -2.513,-2.513 -1.388,0 -2.512,1.124 -2.512,2.513 0,1.387 1.124,2.512 2.512,2.512 C -1.125,2.512 0,1.387 0,0" /></g><g
           transform="translate(143.2499,64.5387)"
           id="g60"><path
             id="path62"
             style="fill:none;stroke:#231f20;stroke-width:0.40000001;stroke-linecap:butt;stroke-linejoin:miter;stroke-miterlimit:10;stroke-dasharray:none;stroke-opacity:1"
             d="m 0,0 c 0,-1.389 -1.125,-2.513 -2.513,-2.513 -1.388,0 -2.512,1.124 -2.512,2.513 0,1.387 1.124,2.512 2.512,2.512 C -1.125,2.512 0,1.387 0,0 Z" /></g><g
           transform="translate(158.36,105.4308)"
           id="g64"><path
             id="path66"
             style="fill:#231f20;fill-opacity:1;fill-rule:nonzero;stroke:none"
             d="M 0,0 C -0.247,0.257 -0.569,0.386 -0.967,0.386 H -1.6 c -0.204,0 -0.349,-0.037 -0.436,-0.11 C -2.128,0.194 -2.175,0.054 -2.175,-0.145 V -2.32 h 1.2 c 0.398,0 0.723,0.155 0.975,0.466 0.223,0.276 0.335,0.599 0.335,0.967 C 0.335,-0.533 0.223,-0.237 0,0 M 0.393,-2.102 C 0.077,-2.383 -0.332,-2.523 -0.836,-2.523 h -1.339 v -1.971 c 0,-0.209 0.056,-0.359 0.168,-0.451 0.131,-0.102 0.357,-0.153 0.676,-0.153 v -0.204 h -2.138 v 0.204 c 0.286,0 0.487,0.051 0.604,0.153 0.111,0.092 0.167,0.242 0.167,0.451 v 4.349 c 0,0.208 -0.056,0.349 -0.167,0.421 -0.112,0.073 -0.313,0.11 -0.604,0.11 v 0.211 h 2.691 c 0.466,0 0.858,-0.129 1.178,-0.386 0.329,-0.276 0.495,-0.643 0.495,-1.098 0,-0.514 -0.168,-0.919 -0.502,-1.215" /></g><g
           transform="translate(152.849,74.2299)"
           id="g68"><path
             id="path70"
             style="fill:#231f20;fill-opacity:1;fill-rule:nonzero;stroke:none"
             d="M 0,0 C 0.024,0.311 0.017,0.572 -0.021,0.786 -0.08,1.13 -0.221,1.302 -0.443,1.302 -0.579,1.302 -0.718,1.241 -0.858,1.12 -0.96,1.023 -1.057,0.897 -1.149,0.742 -1.343,0.441 -1.508,0.109 -1.644,-0.254 -1.735,-0.501 -1.843,-0.858 -1.964,-1.323 h 1.717 c 0.058,0.271 0.106,0.492 0.145,0.661 0.053,0.243 0.087,0.466 0.102,0.669 z M -2.029,-1.585 C -2.087,-1.808 -2.131,-1.99 -2.16,-2.131 -2.204,-2.3 -2.23,-2.446 -2.24,-2.567 h -0.015 c -0.038,-0.388 -0.048,-0.703 -0.028,-0.946 0.038,-0.465 0.186,-0.697 0.443,-0.697 0.213,0 0.444,0.181 0.691,0.545 0.169,0.247 0.322,0.538 0.459,0.873 0.072,0.188 0.142,0.39 0.21,0.603 0.048,0.184 0.102,0.386 0.16,0.604 z M 0.342,-1.622 C 0.201,-2.106 0.017,-2.558 -0.211,-2.974 -0.424,-3.338 -0.648,-3.641 -0.88,-3.883 c -0.335,-0.335 -0.654,-0.502 -0.96,-0.502 -0.364,0 -0.631,0.203 -0.8,0.611 -0.127,0.291 -0.189,0.647 -0.189,1.069 0,0.32 0.031,0.647 0.095,0.981 0.067,0.311 0.16,0.623 0.276,0.939 0.188,0.533 0.438,1.006 0.749,1.418 0.422,0.562 0.849,0.844 1.28,0.844 C -0.075,1.482 0.189,1.28 0.363,0.873 0.494,0.572 0.56,0.213 0.56,-0.204 0.56,-0.645 0.487,-1.117 0.342,-1.622" /></g><g
           transform="translate(182.5879,57.483)"
           id="g72"><path
             id="path74"
             style="fill:#231f20;fill-opacity:1;fill-rule:nonzero;stroke:none"
             d="m 0,0 c -0.088,-0.097 -0.189,-0.145 -0.306,-0.145 -0.097,0 -0.174,0.026 -0.232,0.08 -0.059,0.048 -0.088,0.116 -0.088,0.203 0,0.107 0.039,0.204 0.116,0.291 0.073,0.082 0.165,0.133 0.277,0.153 -0.058,0.044 -0.123,0.072 -0.197,0.087 -0.067,0.01 -0.137,0.015 -0.211,0.015 -0.217,0 -0.404,-0.11 -0.559,-0.327 -0.112,-0.166 -0.196,-0.379 -0.255,-0.641 l -0.378,-1.542 c -0.029,-0.135 -0.041,-0.252 -0.036,-0.349 0.005,-0.126 0.038,-0.235 0.101,-0.327 0.035,-0.043 0.081,-0.082 0.138,-0.116 0.068,-0.034 0.139,-0.051 0.211,-0.051 0.088,0 0.183,0.022 0.284,0.065 0.082,0.039 0.167,0.087 0.255,0.146 0.121,0.097 0.225,0.215 0.313,0.356 0.087,0.131 0.16,0.279 0.217,0.444 v 0.022 c 0.025,0.062 0.044,0.101 0.059,0.116 0.02,0.024 0.056,0.031 0.108,0.022 0.044,-0.01 0.064,-0.044 0.059,-0.102 -0.005,-0.043 -0.022,-0.105 -0.051,-0.182 -0.073,-0.174 -0.165,-0.337 -0.276,-0.487 -0.126,-0.165 -0.267,-0.301 -0.422,-0.407 -0.087,-0.049 -0.177,-0.088 -0.27,-0.117 -0.091,-0.034 -0.191,-0.051 -0.297,-0.051 -0.126,0 -0.238,0.02 -0.335,0.058 -0.097,0.035 -0.179,0.083 -0.247,0.146 -0.078,0.068 -0.141,0.133 -0.189,0.196 -0.054,0.078 -0.09,0.153 -0.109,0.226 -0.102,-0.189 -0.221,-0.337 -0.357,-0.444 -0.16,-0.121 -0.327,-0.182 -0.502,-0.182 -0.198,0 -0.371,0.044 -0.516,0.131 -0.169,0.097 -0.254,0.236 -0.254,0.415 0,0.126 0.043,0.237 0.131,0.334 0.087,0.092 0.193,0.138 0.319,0.138 0.083,0 0.153,-0.024 0.211,-0.072 0.059,-0.054 0.088,-0.126 0.088,-0.218 0,-0.102 -0.039,-0.197 -0.116,-0.284 -0.069,-0.073 -0.156,-0.124 -0.262,-0.153 0.053,-0.039 0.116,-0.065 0.188,-0.08 0.069,-0.024 0.141,-0.036 0.219,-0.036 0.193,0 0.363,0.099 0.509,0.298 0.111,0.15 0.198,0.337 0.262,0.56 l 0.341,1.309 v 0.015 c 0.049,0.194 0.08,0.346 0.095,0.458 C -1.939,0.169 -1.952,0.322 -2,0.429 -2.039,0.511 -2.093,0.574 -2.16,0.618 -2.229,0.662 -2.309,0.684 -2.4,0.684 -2.492,0.689 -2.587,0.671 -2.684,0.633 -2.776,0.604 -2.861,0.555 -2.938,0.487 -3.064,0.39 -3.179,0.262 -3.28,0.102 c -0.087,-0.151 -0.158,-0.313 -0.211,-0.488 -0.015,-0.038 -0.036,-0.065 -0.066,-0.079 -0.024,-0.01 -0.055,-0.01 -0.094,0 -0.044,0.014 -0.058,0.06 -0.044,0.138 0.009,0.048 0.032,0.111 0.065,0.189 l 0.015,0.022 c 0.063,0.155 0.155,0.305 0.276,0.451 0.116,0.14 0.25,0.259 0.401,0.356 0.077,0.058 0.165,0.104 0.261,0.138 0.087,0.019 0.187,0.029 0.298,0.029 0.209,0 0.391,-0.053 0.546,-0.16 0.155,-0.102 0.269,-0.252 0.342,-0.451 0.072,0.175 0.186,0.32 0.342,0.437 0.165,0.116 0.338,0.174 0.523,0.174 0.194,0 0.359,-0.036 0.495,-0.109 C 0.043,0.652 0.131,0.511 0.131,0.327 0.131,0.206 0.087,0.097 0,0" /></g><g
           transform="translate(184.041,53.0831)"
           id="g76"><path
             id="path78"
             style="fill:#231f20;fill-opacity:1;fill-rule:nonzero;stroke:none"
             d="M 0,0 V 8.196 H 1.12 V 7.869 H 0.328 V 0.327 H 1.12 V 0 Z" /></g><g
           transform="translate(188.2158,60.0504)"
           id="g80"><path
             id="path82"
             style="fill:#231f20;fill-opacity:1;fill-rule:nonzero;stroke:none"
             d="m 0,0 -1.04,-3.047 h 2.095 z m 0.888,-5.426 v 0.204 c 0.358,0 0.589,0.036 0.69,0.109 0.107,0.082 0.121,0.235 0.044,0.458 l -0.48,1.367 H -1.12 l -0.378,-1.185 c -0.102,-0.3 -0.102,-0.502 0,-0.604 0.097,-0.097 0.33,-0.145 0.698,-0.145 v -0.204 h -1.782 v 0.204 c 0.228,0 0.396,0.048 0.502,0.145 0.116,0.107 0.237,0.342 0.364,0.706 L -0.095,0.4 0.35,0.596 2.153,-4.633 c 0.073,-0.218 0.172,-0.371 0.298,-0.458 0.121,-0.087 0.293,-0.131 0.517,-0.131 v -0.204 z" /></g><g
           transform="translate(196.6816,60.2028)"
           id="g84"><path
             id="path86"
             style="fill:#231f20;fill-opacity:1;fill-rule:nonzero;stroke:none"
             d="m 0,0 c -0.106,-0.078 -0.16,-0.206 -0.16,-0.385 v -3.39 c 0,-0.63 -0.198,-1.115 -0.596,-1.454 -0.369,-0.32 -0.856,-0.48 -1.462,-0.48 -0.513,0 -0.948,0.163 -1.301,0.487 -0.408,0.379 -0.612,0.897 -0.612,1.557 v 3.28 c 0,0.184 -0.053,0.312 -0.16,0.385 -0.106,0.073 -0.31,0.109 -0.61,0.109 V 0.32 h 2.08 V 0.109 C -3.112,0.109 -3.318,0.073 -3.439,0 -3.552,-0.083 -3.607,-0.211 -3.607,-0.385 V -3.76 c 0,-0.485 0.16,-0.887 0.48,-1.207 0.316,-0.31 0.703,-0.468 1.163,-0.473 0.399,0 0.736,0.117 1.012,0.349 0.373,0.306 0.559,0.761 0.559,1.367 v 3.339 c 0,0.184 -0.055,0.312 -0.167,0.385 -0.116,0.073 -0.325,0.109 -0.625,0.109 V 0.32 H 0.626 V 0.109 C 0.32,0.109 0.111,0.073 0,0" /></g><g
           transform="translate(197.7871,53.0831)"
           id="g88"><path
             id="path90"
             style="fill:#231f20;fill-opacity:1;fill-rule:nonzero;stroke:none"
             d="M 0,0 V 0.327 H 0.792 V 7.869 H 0 V 8.196 H 1.12 V 0 Z" /></g><g
           transform="translate(121.4738,135.9209)"
           id="g92"><path
             id="path94"
             style="fill:#231f20;fill-opacity:1;fill-rule:nonzero;stroke:none"
             d="m 0,0 -0.327,-1.324 c -0.063,-0.218 -0.157,-0.431 -0.283,-0.64 -0.126,-0.213 -0.272,-0.392 -0.437,-0.538 -0.175,-0.145 -0.361,-0.262 -0.56,-0.349 -0.213,-0.097 -0.424,-0.146 -0.632,-0.146 -0.126,0 -0.243,0.02 -0.35,0.059 -0.111,0.034 -0.203,0.082 -0.276,0.145 -0.082,0.068 -0.146,0.146 -0.189,0.233 -0.039,0.083 -0.058,0.174 -0.058,0.276 0.005,0.151 0.046,0.277 0.124,0.378 0.082,0.107 0.193,0.16 0.334,0.16 0.088,0 0.158,-0.024 0.211,-0.072 0.058,-0.049 0.089,-0.121 0.094,-0.219 0,-0.145 -0.055,-0.256 -0.167,-0.334 -0.097,-0.073 -0.214,-0.104 -0.349,-0.095 0.044,-0.111 0.126,-0.199 0.247,-0.261 0.112,-0.059 0.238,-0.09 0.379,-0.095 0.173,0 0.339,0.051 0.494,0.153 0.14,0.087 0.274,0.211 0.4,0.371 0.131,0.184 0.24,0.385 0.327,0.603 0.063,0.146 0.133,0.366 0.211,0.662 -0.116,-0.116 -0.245,-0.206 -0.385,-0.269 -0.141,-0.068 -0.287,-0.102 -0.437,-0.102 -0.324,0 -0.574,0.088 -0.749,0.262 -0.175,0.17 -0.262,0.407 -0.262,0.713 0,0.208 0.046,0.468 0.139,0.778 0.048,0.184 0.141,0.446 0.276,0.785 l 0.066,0.16 c 0.077,0.209 0.121,0.376 0.131,0.502 0.018,0.218 -0.049,0.328 -0.204,0.328 -0.209,0 -0.391,-0.117 -0.545,-0.349 C -2.895,1.6 -2.986,1.379 -3.054,1.113 L -3.062,1.091 C -3.076,1.042 -3.091,1.013 -3.105,1.003 -3.119,0.979 -3.146,0.967 -3.185,0.967 -3.243,0.962 -3.274,0.979 -3.279,1.018 -3.284,1.042 -3.282,1.081 -3.273,1.134 l 0.008,0.022 c 0.092,0.315 0.218,0.572 0.378,0.771 0.198,0.247 0.429,0.371 0.691,0.371 0.194,0 0.349,-0.061 0.466,-0.182 0.13,-0.121 0.196,-0.281 0.196,-0.48 0,-0.077 -0.017,-0.167 -0.051,-0.269 C -1.6,1.309 -1.629,1.224 -1.672,1.113 L -1.694,1.047 C -1.825,0.717 -1.92,0.456 -1.978,0.262 c -0.088,-0.325 -0.13,-0.599 -0.13,-0.822 0,-0.194 0.033,-0.347 0.101,-0.458 0.087,-0.141 0.221,-0.211 0.4,-0.211 0.228,0.004 0.434,0.097 0.619,0.276 0.164,0.155 0.276,0.332 0.334,0.531 0.063,0.247 0.131,0.524 0.204,0.829 0.043,0.175 0.111,0.448 0.203,0.822 l 0.153,0.64 c 0.028,0.111 0.066,0.192 0.109,0.24 0.058,0.068 0.138,0.102 0.24,0.102 0.088,0 0.153,-0.027 0.196,-0.08 C 0.49,2.077 0.505,2.012 0.495,1.935 Z" /></g><g
           transform="translate(122.9357,132.961)"
           id="g96"><path
             id="path98"
             style="fill:#231f20;fill-opacity:1;fill-rule:nonzero;stroke:none"
             d="M 0,0 V 8.196 H 1.12 V 7.869 H 0.328 V 0.327 H 1.12 V 0 Z" /></g><g
           transform="translate(127.1105,139.9283)"
           id="g100"><path
             id="path102"
             style="fill:#231f20;fill-opacity:1;fill-rule:nonzero;stroke:none"
             d="m 0,0 -1.04,-3.047 h 2.095 z m 0.888,-5.426 v 0.204 c 0.358,0 0.588,0.036 0.69,0.109 0.107,0.082 0.121,0.235 0.044,0.458 l -0.48,1.367 H -1.12 l -0.378,-1.185 c -0.102,-0.3 -0.102,-0.502 0,-0.604 0.097,-0.097 0.33,-0.145 0.698,-0.145 v -0.204 h -1.782 v 0.204 c 0.228,0 0.395,0.048 0.502,0.145 0.116,0.107 0.237,0.342 0.364,0.706 L -0.095,0.4 0.35,0.596 2.153,-4.633 c 0.073,-0.218 0.172,-0.371 0.298,-0.458 0.121,-0.087 0.293,-0.131 0.517,-0.131 v -0.204 z" /></g><g
           transform="translate(135.5753,140.0806)"
           id="g104"><path
             id="path106"
             style="fill:#231f20;fill-opacity:1;fill-rule:nonzero;stroke:none"
             d="m 0,0 c -0.106,-0.078 -0.16,-0.206 -0.16,-0.385 v -3.389 c 0,-0.631 -0.198,-1.116 -0.596,-1.455 -0.369,-0.32 -0.856,-0.48 -1.462,-0.48 -0.513,0 -0.948,0.163 -1.302,0.487 -0.407,0.379 -0.611,0.897 -0.611,1.557 v 3.28 c 0,0.184 -0.053,0.312 -0.16,0.385 -0.106,0.073 -0.31,0.109 -0.61,0.109 V 0.32 h 2.08 V 0.109 C -3.112,0.109 -3.318,0.073 -3.439,0 -3.552,-0.083 -3.607,-0.211 -3.607,-0.385 V -3.76 c 0,-0.485 0.16,-0.887 0.48,-1.207 0.315,-0.31 0.703,-0.468 1.163,-0.473 0.399,0 0.735,0.117 1.012,0.349 0.373,0.306 0.559,0.761 0.559,1.367 v 3.339 c 0,0.184 -0.055,0.312 -0.167,0.385 -0.116,0.073 -0.325,0.109 -0.626,0.109 V 0.32 H 0.626 V 0.109 C 0.32,0.109 0.111,0.073 0,0" /></g><g
           transform="translate(136.6818,132.961)"
           id="g108"><path
             id="path110"
             style="fill:#231f20;fill-opacity:1;fill-rule:nonzero;stroke:none"
             d="M 0,0 V 0.327 H 0.792 V 7.869 H 0 V 8.196 H 1.12 V 0 Z" /></g><g
           transform="translate(116.3154,55.6211)"
           id="g112"><path
             id="path114"
             style="fill:#231f20;fill-opacity:1;fill-rule:nonzero;stroke:none"
             d="m 0,0 c -0.384,0 -1.959,-0.088 -1.959,-0.792 0,-0.663 1.567,-0.695 1.951,-0.703 0.455,-0.008 2.039,0.04 2.039,0.695 C 2.031,-0.088 0.456,0 0,0 m 0.032,4.965 c 1.159,0.009 2.678,0.04 2.687,0.04 v -0.52 c -0.009,0 -0.728,0.032 -1.256,0.04 -0.48,0.008 -1.135,0 -1.144,0 0,-0.008 -0.04,-0.351 0.6,-0.855 C 1.711,3.046 2.814,2.998 2.822,2.99 2.91,2.958 3.198,3.038 2.935,2.807 2.87,2.75 2.719,2.503 2.71,2.503 2.702,2.503 1.591,2.574 0.72,3.222 0.191,3.614 0.072,3.941 0.072,3.941 0.064,3.934 -0.168,3.422 -1.031,2.927 -1.711,2.534 -2.654,2.486 -2.663,2.486 c -0.008,0 -0.207,0.264 -0.287,0.336 -0.225,0.208 0.048,0.112 0.168,0.144 0,0 0.799,0.016 1.575,0.424 0.871,0.456 0.919,1.12 0.927,1.135 0,0 -0.543,0.025 -1.159,0 -0.48,-0.015 -1.264,-0.04 -1.264,-0.04 v 0.52 c 0.017,0 1.632,-0.048 2.735,-0.04 m 2.59,-5.757 C 2.631,-1.951 0.447,-1.959 0,-1.959 c -0.344,0 -2.543,0.008 -2.543,1.167 0,1.239 1.967,1.216 2.215,1.239 0.008,0 0.008,0.96 0.008,0.968 0,0 -0.759,0.008 -1.367,0 -0.68,-0.008 -1.735,-0.056 -1.744,-0.056 v 0.512 c 0.009,0 1.872,-0.04 3.471,-0.04 1.119,0 3.534,0.04 3.55,0.04 V 1.359 c 0,0 -0.959,0.04 -1.567,0.056 -0.648,0.016 -1.727,0 -1.735,0 0,-0.008 -0.009,-0.968 0,-0.968 0.272,-0.015 2.326,0 2.334,-1.239" /></g><g
           transform="translate(127.1377,60.7304)"
           id="g116"><path
             id="path118"
             style="fill:#231f20;fill-opacity:1;fill-rule:nonzero;stroke:none"
             d="M 0,0 C 0.168,-0.048 0.032,-0.168 0.032,-0.376 0.032,-0.392 0.024,-1.407 0.016,-2.207 0.008,-2.999 0.04,-4.206 0.04,-4.214 l -0.6,-0.024 c 0,0.016 0.025,1.439 0.025,2.063 0,1.575 -0.057,2.198 -0.057,2.206 C -0.584,0.04 -0.128,0.031 0,0 m -4.166,-5.821 c 0,-0.24 0.017,-0.608 0.017,-0.623 0,0 0.838,-0.04 1.567,-0.04 0.703,0 2.03,0.023 2.047,0.023 0,0.017 0.015,0.36 0.015,0.584 0,0.312 -0.015,0.783 -0.015,0.791 -0.009,0 -1.24,0 -1.951,-0.008 -0.744,-0.008 -1.656,-0.023 -1.663,-0.023 0,-0.008 -0.017,-0.432 -0.017,-0.704 m 1.632,1.159 c 0.943,0 2.582,0.049 2.582,0.049 0,-0.009 -0.008,-0.76 0,-1.28 0.008,-0.696 0.04,-1.215 0.04,-1.215 l -0.6,-0.016 -0.032,0.159 c -0.008,0 -1.047,0.017 -2.015,0.025 -0.624,0.007 -1.583,-0.025 -1.59,-0.025 l -0.048,-0.168 h -0.544 c 0,0.009 0.023,0.76 0.015,1.24 -0.007,0.759 -0.023,1.223 -0.023,1.231 z m -0.92,4.238 c 0.216,-0.032 -0.025,-0.24 -0.032,-0.296 -0.008,-0.088 -0.088,-0.424 -0.088,-0.488 0,-0.088 0.08,-0.607 0.736,-1.375 0.583,-0.688 1.207,-0.991 1.199,-1.007 0.08,-0.064 -0.04,-0.128 -0.136,-0.2 -0.12,-0.088 -0.216,-0.216 -0.232,-0.232 0,0 -0.464,0.248 -1.023,0.839 -0.592,0.624 -0.768,1.136 -0.768,1.144 -0.008,-0.016 -0.271,-0.664 -0.847,-1.264 -0.488,-0.511 -1.08,-0.879 -1.087,-0.887 -0.025,-0.008 -0.273,0.192 -0.401,0.264 -0.191,0.104 -0.103,0.064 0,0.152 0,0.016 0.632,0.248 1.4,1.199 0.767,0.952 0.672,2.215 0.672,2.222 0,0 0.463,-0.047 0.607,-0.071" /></g><g
           transform="translate(135.0498,60.7304)"
           id="g120"><path
             id="path122"
             style="fill:#231f20;fill-opacity:1;fill-rule:nonzero;stroke:none"
             d="m 0,0 c 0.264,-0.024 0.08,-0.272 0.08,-0.432 0.008,-0.032 -0.032,-0.672 -0.032,-1.847 0,-1.175 0.024,-1.847 0.024,-1.855 h -0.576 c 0,0.008 0.025,0.208 0.025,0.504 0,0.304 -0.008,0.503 -0.008,0.512 l -1.32,-0.025 v 0.456 l 1.32,-0.016 v 0.687 l -1.344,-0.015 v 0.456 l 1.344,-0.017 c 0,0 0.008,0.456 0.008,0.744 0,0.344 -0.033,0.871 -0.033,0.879 0,0 0.312,-0.015 0.512,-0.031 m -2.431,-7.068 h -2.415 c 0,0.024 0.033,0.511 0.033,0.759 0,0.176 -0.016,0.808 -0.016,0.816 0,0 1.814,-0.016 2.366,-0.016 0.481,0 1.856,0.031 1.863,0.031 v 0.584 h -1.903 c -0.911,0 -2.334,-0.015 -2.343,-0.015 v 0.463 c 0.009,0 1.48,-0.048 2.343,-0.048 0.856,0 2.463,0.016 2.471,0.016 0,0 -0.024,-0.584 -0.024,-0.719 0,-0.128 0.016,-0.736 0.016,-0.736 -0.008,0 -1.831,0.024 -2.398,0.024 -0.568,0 -1.839,-0.016 -1.839,-0.016 v -0.68 c 0,0 0.926,-0.032 1.862,-0.032 0.728,0 2.551,0.056 2.559,0.056 v -0.527 c -0.008,0 -1.839,0.04 -2.575,0.04 m -1.543,3.765 c 0.408,0 1.112,0.025 1.112,0.025 v 1.247 c -0.008,0 -0.617,0.015 -1.104,0.015 -0.416,0 -1.063,-0.015 -1.071,-0.015 v -1.247 c 0.016,0 0.647,-0.025 1.063,-0.025 m -1.583,1.199 c 0,0.928 -0.024,1.6 -0.024,1.608 0.008,0.008 0.408,-0.016 0.52,-0.04 0.16,-0.032 0.024,-0.248 0.024,-0.36 v -0.671 c 0,0 0.687,-0.025 1.079,-0.025 0.4,0 1.079,0.025 1.096,0.025 0,0.007 -0.008,0.319 0,0.527 0.008,0.208 -0.017,0.576 -0.017,0.584 0,0 0.433,-0.032 0.512,-0.056 0.129,-0.04 0.049,-0.192 0.049,-0.303 0,-0.009 -0.017,-0.936 -0.017,-1.432 0,-0.496 0.017,-1.495 0.017,-1.503 -0.017,0 -1.192,0.016 -1.663,0.016 -0.393,0 -1.6,-0.016 -1.6,-0.016 0,0.008 0.024,0.791 0.024,1.646" /></g></g></g></g></svg>