<?xml version="1.0" encoding="UTF-8" standalone="no"?>
<svg
   xmlns:dc="http://purl.org/dc/elements/1.1/"
   xmlns:cc="http://creativecommons.org/ns#"
   xmlns:rdf="http://www.w3.org/1999/02/22-rdf-syntax-ns#"
   xmlns:svg="http://www.w3.org/2000/svg"
   xmlns="http://www.w3.org/2000/svg"
   viewBox="0 0 274.69467 195.34801"
   height="195.34801"
   width="274.69467"
   xml:space="preserve"
   id="svg2"
   version="1.1"><metadata
     id="metadata8"><rdf:RDF><cc:Work
         rdf:about=""><dc:format>image/svg+xml</dc:format><dc:type
           rdf:resource="http://purl.org/dc/dcmitype/StillImage" /></cc:Work></rdf:RDF></metadata><defs
     id="defs6"><clipPath
       id="clipPath18"
       clipPathUnits="userSpaceOnUse"><path
         id="path16"
         d="M 0,146.511 H 206.021 V 0 H 0 Z" /></clipPath><clipPath
       id="clipPath34"
       clipPathUnits="userSpaceOnUse"><path
         id="path32"
         d="M 0,146.511 H 206.021 V 0 H 0 Z" /></clipPath></defs><g
     transform="matrix(1.3333333,0,0,-1.3333333,0,195.348)"
     id="g10"><g
       id="g12"><g
         clip-path="url(#clipPath18)"
         id="g14"><g
           transform="translate(176.8257,145.8557)"
           id="g20"><path
             id="path22"
             style="fill:none;stroke:#ed1c24;stroke-width:0.69999999;stroke-linecap:butt;stroke-linejoin:miter;stroke-miterlimit:10;stroke-dasharray:none;stroke-opacity:1"
             d="M 0,0 -0.149,-0.302 -0.454,-0.916 -0.76,-1.53 -0.912,-1.838 -1.064,-2.145 -1.371,-2.759 -1.678,-3.373 -1.986,-3.988 -2.295,-4.603 -2.376,-4.764 -2.605,-5.217 -2.916,-5.831 -3.23,-6.445 -3.545,-7.06 -3.84,-7.632 l -0.342,-0.657 -0.321,-0.614 -0.324,-0.615 -0.327,-0.614 -0.151,-0.28 -0.178,-0.334 -0.333,-0.614 -0.336,-0.616 -0.34,-0.613 -0.276,-0.494 -0.068,-0.121 -0.348,-0.613 -0.351,-0.616 -0.356,-0.614 -0.341,-0.58 -0.385,-0.648 -0.371,-0.615 -0.377,-0.614 -0.33,-0.532 -0.051,-0.083 -0.389,-0.614 -0.394,-0.615 -0.401,-0.614 -0.23,-0.346 -0.178,-0.268 -0.414,-0.614 -0.423,-0.615 -0.43,-0.615 -0.438,-0.614 -0.447,-0.614 -0.457,-0.615 -0.141,-0.185 -0.324,-0.429 -0.475,-0.614 -0.485,-0.614 -0.179,-0.223 -0.316,-0.393 -0.507,-0.614 -0.519,-0.613 -0.123,-0.144 -0.406,-0.471 -0.542,-0.615 -0.515,-0.57 -0.609,-0.658 -0.582,-0.614 -0.273,-0.283 -0.323,-0.332 -0.611,-0.614 -0.53,-0.521 -0.097,-0.093 -0.642,-0.616 -0.66,-0.614 -0.676,-0.614 -0.695,-0.614 -0.158,-0.137 -0.554,-0.478 -0.732,-0.614 -0.178,-0.145 -0.573,-0.47 -0.772,-0.614 -0.12,-0.092 -0.672,-0.523 -0.791,-0.596 -0.858,-0.632 -0.606,-0.434 -0.252,-0.18 -0.882,-0.615 -0.329,-0.223 -0.576,-0.392 -0.889,-0.586 -0.996,-0.641 -0.467,-0.293 -0.514,-0.323 -0.951,-0.58 -1.088,-0.648 -0.375,-0.218 -0.684,-0.396 -0.781,-0.441 -0.306,-0.174 -1.115,-0.615 -1.142,-0.614 -0.364,-0.191 -0.807,-0.423 -0.657,-0.337 -0.541,-0.277 -0.923,-0.463 -0.304,-0.152 -1.161,-0.568 -0.094,-0.046 -1.283,-0.614 -0.086,-0.041 -1.225,-0.574 -0.239,-0.11 -1.1,-0.504 -0.364,-0.164 -1.002,-0.451 -0.462,-0.204 -0.93,-0.41 -0.533,-0.231 -0.885,-0.384 -0.58,-0.246 -0.864,-0.367 -0.599,-0.252 -0.869,-0.363 -0.596,-0.245 -0.895,-0.369 -0.57,-0.231 -0.945,-0.384 -0.518,-0.207 -1.017,-0.407 -0.446,-0.177 -1.109,-0.437 -0.355,-0.139 -1.217,-0.476 -0.247,-0.096 -1.344,-0.518 -0.12,-0.047 -1.465,-0.56 -1.463,-0.556 -0.176,-0.066 -1.289,-0.486 -0.341,-0.128 -1.122,-0.421 -0.517,-0.194 -0.947,-0.353 -0.702,-0.261 -0.763,-0.284 -0.889,-0.331 -0.574,-0.212 -1.084,-0.402 -1.084,-0.402 -0.573,-0.212 -0.89,-0.331 -0.764,-0.284 -0.701,-0.261 -0.946,-0.353 -0.518,-0.194 -1.122,-0.421 -0.342,-0.128 -1.288,-0.486 -0.175,-0.066 -1.464,-0.556 -1.464,-0.56 -0.121,-0.047 -1.344,-0.518 -0.246,-0.096 -1.218,-0.476 -0.355,-0.139 -1.108,-0.437 -0.446,-0.177 -1.018,-0.407 -0.518,-0.207 -0.945,-0.384 -0.569,-0.231 -0.896,-0.369 -0.595,-0.245 -0.869,-0.363 -0.599,-0.252 -0.865,-0.367 -0.579,-0.246 -0.885,-0.384 -0.534,-0.231 -0.929,-0.41 -0.463,-0.204 -1.002,-0.451 -0.364,-0.164 -1.1,-0.504 -0.238,-0.11 -1.225,-0.574 -0.086,-0.041 -1.283,-0.614 -0.095,-0.046 -1.161,-0.568 -0.304,-0.152 -0.923,-0.463 -0.541,-0.277 -0.657,-0.337 -0.806,-0.423 -0.365,-0.191 -1.142,-0.614 -1.114,-0.615 -0.307,-0.174 -0.78,-0.441 -0.684,-0.396 -0.376,-0.218 -1.088,-0.648 -0.951,-0.58 -0.513,-0.323 -0.467,-0.293 -0.997,-0.641 -0.888,-0.586 -0.576,-0.392 -0.33,-0.223 -0.881,-0.615 -0.253,-0.18 -0.606,-0.434 -0.858,-0.632 -0.791,-0.596 -0.673,-0.523 -0.119,-0.092 -0.772,-0.614 -0.573,-0.47 -0.178,-0.145 -0.731,-0.614 -0.555,-0.478 -0.158,-0.137 -0.694,-0.614 -0.677,-0.614 -0.659,-0.614 -0.643,-0.616 -0.097,-0.093 -0.529,-0.521 -0.612,-0.614 -0.322,-0.332 -0.274,-0.283 -0.582,-0.614 -0.609,-0.658 -0.515,-0.57 -0.542,-0.615 -0.406,-0.471 -0.124,-0.144 -0.518,-0.613 -0.506,-0.614 -0.316,-0.393 -0.18,-0.223 -0.485,-0.614 -0.475,-0.614 -0.324,-0.429 -0.141,-0.185 -0.456,-0.615 -0.447,-0.614 -0.439,-0.614 -0.43,-0.615 -0.422,-0.615 -0.415,-0.614 -0.178,-0.268 -0.23,-0.346 -0.401,-0.614 -0.394,-0.615 -0.388,-0.614 -0.051,-0.083 -0.331,-0.532 -0.376,-0.614 -0.371,-0.615 -0.386,-0.648 -0.341,-0.58 -0.356,-0.614 -0.352,-0.616 -0.347,-0.613 -0.068,-0.121 -0.275,-0.494 -0.34,-0.613 -0.337,-0.616 -0.332,-0.614 -0.179,-0.334 -0.151,-0.28 -0.327,-0.614 -0.324,-0.615 -0.322,-0.614 -0.341,-0.657 -0.295,-0.572 -0.315,-0.615 -0.313,-0.614 -0.312,-0.614 -0.229,-0.453 -0.081,-0.161 -0.309,-0.615 -0.308,-0.615 -0.307,-0.614 -0.306,-0.614 -0.153,-0.307 -0.152,-0.308 -0.306,-0.614 -0.304,-0.614 -0.15,-0.302" /></g></g></g><g
       transform="translate(20.583,142.3926)"
       id="g24"><path
         id="path26"
         style="fill:none;stroke:#000000;stroke-width:0.40000001;stroke-linecap:butt;stroke-linejoin:miter;stroke-miterlimit:10;stroke-dasharray:none;stroke-opacity:1"
         d="M 0,0 V -141.342" /></g><g
       id="g28"><g
         clip-path="url(#clipPath34)"
         id="g30"><g
           transform="translate(20.583,141.6746)"
           id="g36"><path
             id="path38"
             style="fill:#000000;fill-opacity:1;fill-rule:nonzero;stroke:none"
             d="m 0,0 1.441,-0.877 0.033,0.05 -0.934,2.35 C 0.36,2.341 0.18,3.16 0,3.979 -0.18,3.16 -0.36,2.341 -0.54,1.523 l -0.934,-2.35 0.025,-0.05 z" /></g><g
           transform="translate(0.5,21.1477)"
           id="g40"><path
             id="path42"
             style="fill:none;stroke:#000000;stroke-width:0.40000001;stroke-linecap:butt;stroke-linejoin:miter;stroke-miterlimit:10;stroke-dasharray:none;stroke-opacity:1"
             d="M 0,0 H 201.76" /></g><g
           transform="translate(201.5421,21.1477)"
           id="g44"><path
             id="path46"
             style="fill:#000000;fill-opacity:1;fill-rule:nonzero;stroke:none"
             d="m 0,0 -0.877,1.441 0.05,0.033 2.35,-0.934 C 2.341,0.36 3.16,0.18 3.979,0 3.16,-0.18 2.341,-0.36 1.523,-0.54 l -2.35,-0.934 -0.05,0.025 z" /></g><g
           transform="translate(20.5835,83.5017)"
           id="g48"><path
             id="path50"
             style="fill:none;stroke:#231f20;stroke-width:0.30000001;stroke-linecap:butt;stroke-linejoin:miter;stroke-miterlimit:10;stroke-dasharray:none;stroke-opacity:1"
             d="M 0,0 H 0.75" /></g><g
           transform="translate(22.3417,83.5017)"
           id="g52"><path
             id="path54"
             style="fill:none;stroke:#231f20;stroke-width:0.30000001;stroke-linecap:butt;stroke-linejoin:miter;stroke-miterlimit:10;stroke-dasharray:1.512, 1.008;stroke-dashoffset:0;stroke-opacity:1"
             d="M 0,0 H 75.109" /></g><g
           transform="translate(97.9546,83.5017)"
           id="g56"><path
             id="path58"
             style="fill:none;stroke:#231f20;stroke-width:0.30000001;stroke-linecap:butt;stroke-linejoin:miter;stroke-miterlimit:10;stroke-dasharray:none;stroke-opacity:1"
             d="M 0,0 H 0.75" /></g><g
           transform="translate(98.7046,83.5017)"
           id="g60"><path
             id="path62"
             style="fill:none;stroke:#231f20;stroke-width:0.30000001;stroke-linecap:butt;stroke-linejoin:miter;stroke-miterlimit:10;stroke-dasharray:none;stroke-opacity:1"
             d="M 0,0 V -0.75" /></g><g
           transform="translate(98.7046,81.754)"
           id="g64"><path
             id="path66"
             style="fill:none;stroke:#231f20;stroke-width:0.30000001;stroke-linecap:butt;stroke-linejoin:miter;stroke-miterlimit:10;stroke-dasharray:1.496, 0.998;stroke-dashoffset:0;stroke-opacity:1"
             d="M 0,0 V -59.359" /></g><g
           transform="translate(98.7046,21.8957)"
           id="g68"><path
             id="path70"
             style="fill:none;stroke:#231f20;stroke-width:0.30000001;stroke-linecap:butt;stroke-linejoin:miter;stroke-miterlimit:10;stroke-dasharray:none;stroke-opacity:1"
             d="M 0,0 V -0.75" /></g><g
           transform="translate(16.9487,144.1769)"
           id="g72"><path
             id="path74"
             style="fill:#231f20;fill-opacity:1;fill-rule:nonzero;stroke:none"
             d="M 0,0 C 0.024,0.311 0.017,0.572 -0.021,0.786 -0.08,1.13 -0.221,1.302 -0.443,1.302 -0.579,1.302 -0.718,1.241 -0.858,1.12 -0.96,1.023 -1.057,0.897 -1.149,0.742 -1.343,0.441 -1.508,0.109 -1.643,-0.254 c -0.092,-0.247 -0.2,-0.604 -0.321,-1.069 h 1.717 c 0.058,0.271 0.106,0.492 0.145,0.661 0.053,0.243 0.087,0.466 0.102,0.669 z M -2.029,-1.585 C -2.087,-1.808 -2.131,-1.99 -2.16,-2.131 -2.204,-2.3 -2.23,-2.446 -2.24,-2.567 h -0.015 c -0.038,-0.388 -0.048,-0.703 -0.028,-0.946 0.038,-0.465 0.186,-0.697 0.443,-0.697 0.213,0 0.444,0.181 0.691,0.545 0.169,0.247 0.322,0.538 0.459,0.873 0.072,0.188 0.142,0.39 0.21,0.603 0.048,0.184 0.102,0.386 0.16,0.604 z M 0.342,-1.622 C 0.201,-2.106 0.017,-2.558 -0.211,-2.974 -0.424,-3.338 -0.648,-3.641 -0.88,-3.883 c -0.335,-0.335 -0.654,-0.502 -0.96,-0.502 -0.364,0 -0.631,0.203 -0.8,0.611 -0.127,0.291 -0.189,0.647 -0.189,1.069 0,0.32 0.031,0.647 0.095,0.981 0.067,0.311 0.16,0.623 0.276,0.939 0.188,0.533 0.438,1.006 0.749,1.418 0.422,0.562 0.849,0.844 1.28,0.844 C -0.075,1.482 0.189,1.28 0.363,0.873 0.494,0.572 0.56,0.213 0.56,-0.204 0.56,-0.645 0.487,-1.117 0.342,-1.622" /></g><g
           transform="translate(205.4487,16.2541)"
           id="g76"><path
             id="path78"
             style="fill:#231f20;fill-opacity:1;fill-rule:nonzero;stroke:none"
             d="M 0,0 C -0.029,-0.015 -0.087,-0.023 -0.175,-0.023 H -0.939 L -1.542,-2.43 C -1.596,-2.6 -1.614,-2.757 -1.6,-2.902 c 0.014,-0.203 0.099,-0.306 0.254,-0.306 0.083,0 0.17,0.022 0.262,0.065 0.088,0.039 0.168,0.088 0.24,0.146 0.112,0.097 0.223,0.233 0.335,0.407 0.107,0.16 0.182,0.309 0.225,0.444 0.014,0.039 0.029,0.063 0.044,0.073 0.019,0.019 0.049,0.031 0.088,0.036 0.067,0 0.096,-0.034 0.087,-0.102 -0.005,-0.044 -0.03,-0.104 -0.074,-0.181 L -0.146,-2.343 C -0.214,-2.502 -0.306,-2.657 -0.422,-2.808 -0.528,-2.953 -0.654,-3.084 -0.8,-3.2 -0.888,-3.254 -0.98,-3.298 -1.076,-3.331 -1.174,-3.365 -1.268,-3.382 -1.36,-3.382 c -0.282,0 -0.493,0.099 -0.633,0.298 -0.126,0.188 -0.157,0.414 -0.094,0.676 l 0.239,0.989 0.357,1.396 h -0.72 -0.044 c -0.058,0 -0.101,0.005 -0.131,0.015 -0.039,0.01 -0.057,0.039 -0.057,0.087 0,0.073 0.021,0.119 0.065,0.139 0.028,0.014 0.082,0.021 0.159,0.021 l 0.023,-0.007 h 0.77 l 0.321,1.309 c 0.024,0.088 0.062,0.155 0.116,0.204 0.058,0.058 0.129,0.087 0.211,0.087 0.087,0 0.152,-0.026 0.196,-0.08 C -0.548,1.709 -0.538,1.641 -0.553,1.549 -0.582,1.408 -0.618,1.25 -0.662,1.076 -0.691,0.974 -0.734,0.818 -0.793,0.61 L -0.88,0.232 h 0.728 l 0.028,0.007 C -0.07,0.239 -0.029,0.237 0,0.232 0.048,0.218 0.072,0.188 0.072,0.145 0.072,0.072 0.048,0.023 0,0" /></g><g
           transform="translate(17.3696,84.8888)"
           id="g80"><path
             id="path82"
             style="fill:#231f20;fill-opacity:1;fill-rule:nonzero;stroke:none"
             d="m 0,0 c -0.058,-0.034 -0.145,-0.051 -0.262,-0.051 h -0.937 c -0.044,-0.228 -0.08,-0.444 -0.11,-0.647 -0.029,-0.228 -0.043,-0.447 -0.043,-0.655 0,-0.243 0.019,-0.475 0.058,-0.698 0.038,-0.252 0.102,-0.468 0.189,-0.647 0.048,-0.121 0.041,-0.236 -0.022,-0.342 -0.059,-0.102 -0.148,-0.152 -0.269,-0.152 -0.146,0 -0.247,0.139 -0.305,0.421 -0.039,0.179 -0.059,0.383 -0.059,0.611 0,0.252 0.025,0.533 0.074,0.844 0.033,0.184 0.088,0.456 0.166,0.814 l 0.11,0.451 H -2.342 L -2.581,-0.968 C -2.708,-1.491 -2.8,-1.867 -2.857,-2.095 -2.97,-2.492 -3.061,-2.783 -3.134,-2.968 -3.163,-3.04 -3.202,-3.096 -3.251,-3.135 c -0.067,-0.062 -0.152,-0.077 -0.254,-0.044 -0.088,0.034 -0.14,0.085 -0.16,0.154 -0.01,0.057 0.01,0.14 0.058,0.247 0.233,0.484 0.429,0.935 0.589,1.352 0.194,0.481 0.352,0.939 0.473,1.375 h -0.466 c -0.091,0 -0.167,-0.003 -0.225,-0.008 -0.073,-0.009 -0.143,-0.031 -0.211,-0.065 -0.126,-0.048 -0.242,-0.123 -0.349,-0.226 -0.097,-0.082 -0.184,-0.191 -0.262,-0.327 -0.034,-0.029 -0.07,-0.06 -0.109,-0.094 -0.059,-0.029 -0.092,-0.019 -0.101,0.029 -0.01,0.029 -0.015,0.051 -0.015,0.065 0,0.01 0.005,0.025 0.015,0.044 l 0.014,0.022 c 0.053,0.111 0.126,0.228 0.218,0.349 0.073,0.107 0.155,0.211 0.247,0.313 0.116,0.135 0.245,0.232 0.386,0.291 0.131,0.053 0.288,0.08 0.472,0.08 h 2.743 c 0.101,0 0.173,-0.008 0.217,-0.023 C 0.103,0.376 0.139,0.32 0.139,0.232 0.139,0.126 0.093,0.048 0,0" /></g><g
           transform="translate(17.523,18.2189)"
           id="g84"><path
             id="path86"
             style="fill:#231f20;fill-opacity:1;fill-rule:nonzero;stroke:none"
             d="M 0,0 C -0.359,0.602 -0.827,0.901 -1.404,0.901 -1.986,0.896 -2.456,0.597 -2.815,0 c -0.33,-0.543 -0.494,-1.202 -0.494,-1.979 0.004,-0.765 0.169,-1.419 0.494,-1.962 0.359,-0.597 0.829,-0.895 1.411,-0.895 0.577,0 1.045,0.298 1.404,0.895 0.325,0.547 0.487,1.202 0.487,1.962 C 0.487,-1.202 0.325,-0.543 0,0 m 0.415,-4.087 c -0.456,-0.641 -1.062,-0.96 -1.819,-0.96 -0.761,0 -1.369,0.319 -1.825,0.96 -0.413,0.576 -0.619,1.282 -0.619,2.116 -0.005,0.829 0.202,1.534 0.619,2.116 0.456,0.64 1.064,0.96 1.825,0.96 0.757,0 1.363,-0.32 1.819,-0.96 0.417,-0.582 0.625,-1.289 0.625,-2.12 0,-0.831 -0.208,-1.536 -0.625,-2.112" /></g><path
           id="path88"
           style="fill:#231f20;fill-opacity:1;fill-rule:nonzero;stroke:none"
           d="m 94.699,8.353 h 8.011 V 8.025 h -8.011 z" /><g
           transform="translate(100.1932,0.5)"
           id="g90"><path
             id="path92"
             style="fill:#231f20;fill-opacity:1;fill-rule:nonzero;stroke:none"
             d="m 0,0 h -3.039 v 0.192 l 1.663,1.863 c 0.123,0.149 0.229,0.285 0.32,0.408 0.107,0.149 0.2,0.299 0.28,0.448 0.08,0.16 0.141,0.314 0.184,0.464 0.053,0.17 0.08,0.332 0.08,0.487 0,0.176 -0.021,0.339 -0.064,0.488 -0.043,0.165 -0.109,0.309 -0.2,0.432 -0.106,0.139 -0.232,0.245 -0.376,0.32 -0.138,0.064 -0.291,0.096 -0.456,0.096 -0.266,0 -0.498,-0.075 -0.696,-0.224 -0.191,-0.15 -0.33,-0.352 -0.415,-0.608 l 0.104,0.008 c 0.128,0 0.232,-0.037 0.311,-0.112 0.086,-0.08 0.129,-0.186 0.129,-0.32 0,-0.117 -0.04,-0.218 -0.12,-0.303 C -2.381,3.553 -2.482,3.51 -2.599,3.51 c -0.139,0 -0.248,0.046 -0.328,0.136 -0.075,0.086 -0.112,0.195 -0.112,0.328 0,0.187 0.037,0.371 0.112,0.552 0.075,0.171 0.176,0.323 0.304,0.456 0.144,0.159 0.311,0.28 0.504,0.36 0.186,0.074 0.389,0.112 0.607,0.112 0.235,0 0.456,-0.035 0.664,-0.104 C -0.629,5.275 -0.435,5.163 -0.264,5.014 -0.104,4.865 0.018,4.691 0.104,4.494 0.189,4.302 0.231,4.091 0.231,3.862 0.231,3.649 0.2,3.457 0.136,3.286 0.072,3.121 -0.03,2.956 -0.168,2.791 -0.296,2.652 -0.445,2.503 -0.616,2.343 -0.707,2.252 -0.856,2.111 -1.064,1.919 L -1.527,1.48 -2.399,0.632 h 1.463 0.048 c 0.16,0 0.285,0.003 0.376,0.008 0.17,0.01 0.275,0.029 0.312,0.056 0.053,0.048 0.098,0.136 0.136,0.264 0.016,0.069 0.037,0.181 0.064,0.336 l 0.024,0.135 h 0.207 z" /></g><g
           transform="translate(98.5761,16.2549)"
           id="g94"><path
             id="path96"
             style="fill:#231f20;fill-opacity:1;fill-rule:nonzero;stroke:none"
             d="m 0,0 c -0.032,-0.016 -0.091,-0.024 -0.176,-0.024 h -0.759 l -0.608,-2.407 c -0.054,-0.171 -0.072,-0.328 -0.056,-0.471 0.016,-0.203 0.101,-0.304 0.256,-0.304 0.085,0 0.173,0.021 0.264,0.064 0.085,0.037 0.165,0.085 0.24,0.143 0.106,0.097 0.215,0.232 0.327,0.408 0.107,0.16 0.184,0.307 0.232,0.44 0.011,0.037 0.024,0.064 0.04,0.08 0.022,0.021 0.051,0.032 0.088,0.032 0.069,0 0.099,-0.035 0.088,-0.104 -0.005,-0.037 -0.029,-0.096 -0.072,-0.176 l -0.008,-0.024 c -0.069,-0.16 -0.162,-0.314 -0.28,-0.464 -0.106,-0.144 -0.231,-0.274 -0.376,-0.392 -0.085,-0.058 -0.175,-0.103 -0.271,-0.135 -0.096,-0.032 -0.192,-0.048 -0.288,-0.048 -0.283,0 -0.494,0.098 -0.632,0.296 -0.128,0.192 -0.16,0.418 -0.096,0.679 l 0.24,0.984 0.36,1.399 h -0.72 -0.048 c -0.059,0 -0.101,0.005 -0.128,0.016 -0.037,0.011 -0.056,0.04 -0.056,0.088 0,0.069 0.021,0.115 0.064,0.136 0.027,0.016 0.08,0.024 0.16,0.024 l 0.024,-0.008 h 0.768 l 0.32,1.303 c 0.021,0.091 0.058,0.16 0.111,0.208 0.059,0.059 0.131,0.088 0.216,0.088 0.086,0 0.15,-0.026 0.192,-0.08 C -0.546,1.703 -0.536,1.634 -0.552,1.543 -0.584,1.405 -0.621,1.247 -0.663,1.072 -0.69,0.97 -0.733,0.816 -0.792,0.608 L -0.879,0.232 h 0.727 L -0.12,0.24 C -0.066,0.24 -0.026,0.237 0,0.232 0.048,0.216 0.072,0.187 0.072,0.144 0.072,0.069 0.048,0.021 0,0" /></g><g
           transform="translate(100.7794,13.1122)"
           id="g98"><path
             id="path100"
             style="fill:#231f20;fill-opacity:1;fill-rule:nonzero;stroke:none"
             d="m 0,0 c -0.007,0.18 -0.02,0.329 -0.038,0.447 -0.028,0.184 -0.073,0.32 -0.135,0.41 -0.064,0.1 -0.14,0.178 -0.226,0.232 -0.093,0.057 -0.194,0.086 -0.302,0.086 -0.115,0 -0.219,-0.029 -0.312,-0.086 C -1.096,1.038 -1.168,0.961 -1.229,0.857 -1.293,0.76 -1.338,0.618 -1.363,0.431 -1.382,0.309 -1.392,0.16 -1.396,-0.016 -1.399,-0.2 -1.401,-0.388 -1.401,-0.582 c 0,-0.187 0.002,-0.374 0.005,-0.561 0,-0.157 0.011,-0.31 0.033,-0.458 0.028,-0.186 0.073,-0.334 0.134,-0.441 0.058,-0.101 0.129,-0.182 0.216,-0.243 0.097,-0.065 0.201,-0.097 0.312,-0.097 0.119,0 0.225,0.034 0.318,0.103 0.09,0.061 0.166,0.147 0.227,0.258 0.05,0.1 0.088,0.244 0.113,0.431 0.014,0.115 0.027,0.264 0.037,0.447 0.008,0.187 0.011,0.379 0.011,0.577 0,0.187 -0.001,0.379 -0.005,0.577 z M 0.426,-1.25 C 0.397,-1.48 0.341,-1.683 0.259,-1.859 0.165,-2.061 0.036,-2.217 -0.129,-2.328 c -0.166,-0.115 -0.356,-0.173 -0.572,-0.173 -0.132,0 -0.26,0.026 -0.382,0.076 -0.123,0.047 -0.23,0.115 -0.324,0.205 -0.179,0.169 -0.305,0.418 -0.377,0.749 -0.05,0.233 -0.075,0.519 -0.075,0.856 0,0.32 0.021,0.595 0.064,0.825 0.065,0.324 0.178,0.573 0.34,0.749 0.1,0.115 0.214,0.2 0.339,0.253 0.126,0.054 0.266,0.081 0.421,0.081 0.136,0 0.266,-0.025 0.388,-0.075 C -0.192,1.167 -0.083,1.094 0.022,0.997 0.194,0.832 0.316,0.582 0.388,0.248 0.438,0.011 0.464,-0.277 0.464,-0.615 0.464,-0.87 0.451,-1.081 0.426,-1.25" /></g></g></g></g></svg>