<?xml version="1.0" encoding="UTF-8" standalone="no"?>
<svg
   xmlns:dc="http://purl.org/dc/elements/1.1/"
   xmlns:cc="http://creativecommons.org/ns#"
   xmlns:rdf="http://www.w3.org/1999/02/22-rdf-syntax-ns#"
   xmlns:svg="http://www.w3.org/2000/svg"
   xmlns="http://www.w3.org/2000/svg"
   viewBox="0 0 200 126.66667"
   height="126.66667"
   width="200"
   xml:space="preserve"
   id="svg2"
   version="1.1"><metadata
     id="metadata8"><rdf:RDF><cc:Work
         rdf:about=""><dc:format>image/svg+xml</dc:format><dc:type
           rdf:resource="http://purl.org/dc/dcmitype/StillImage" /></cc:Work></rdf:RDF></metadata><defs
     id="defs6"><clipPath
       id="clipPath18"
       clipPathUnits="userSpaceOnUse"><path
         id="path16"
         d="M 0,95 H 150 V 0 H 0 Z" /></clipPath></defs><g
     transform="matrix(1.3333333,0,0,-1.3333333,0,126.66667)"
     id="g10"><g
       id="g12"><g
         clip-path="url(#clipPath18)"
         id="g14"><g
           transform="translate(57.873,90.2471)"
           id="g20"><path
             id="path22"
             style="fill:none;stroke:#00aeef;stroke-width:1;stroke-linecap:butt;stroke-linejoin:miter;stroke-miterlimit:4;stroke-dasharray:none;stroke-opacity:1"
             d="m 0,0 c 42.602,0 77.137,-34.535 77.137,-77.136 0,-42.601 -34.535,-77.136 -77.137,-77.136 -42.601,0 -77.136,34.535 -77.136,77.136 C -77.136,-34.535 -42.601,0 0,0 Z" /></g><g
           transform="translate(57.873,64.1318)"
           id="g24"><path
             id="path26"
             style="fill:none;stroke:#231f20;stroke-width:0.69999999;stroke-linecap:butt;stroke-linejoin:miter;stroke-miterlimit:4;stroke-dasharray:none;stroke-opacity:1"
             d="m 0,0 c 42.602,0 77.137,-22.843 77.137,-51.021 0,-28.179 -34.535,-51.021 -77.137,-51.021 -42.601,0 -77.136,22.842 -77.136,51.021 C -77.136,-22.843 -42.601,0 0,0 Z" /></g><g
           transform="translate(96.4414,13.1113)"
           id="g28"><path
             id="path30"
             style="fill:none;stroke:#000000;stroke-width:0.5;stroke-linecap:butt;stroke-linejoin:miter;stroke-miterlimit:4;stroke-dasharray:none;stroke-opacity:1"
             d="M 0,0 V 1" /></g><g
           transform="translate(96.4414,15.124)"
           id="g32"><path
             id="path34"
             style="fill:none;stroke:#000000;stroke-width:0.5;stroke-linecap:butt;stroke-linejoin:miter;stroke-miterlimit:4;stroke-dasharray:2.025, 1.013;stroke-dashoffset:0;stroke-opacity:1"
             d="M 0,0 V 63.282" /></g><g
           transform="translate(96.4414,78.9126)"
           id="g36"><path
             id="path38"
             style="fill:none;stroke:#000000;stroke-width:0.5;stroke-linecap:butt;stroke-linejoin:miter;stroke-miterlimit:4;stroke-dasharray:none;stroke-opacity:1"
             d="M 0,0 V 1" /></g><g
           transform="translate(57.873,13.1113)"
           id="g40"><path
             id="path42"
             style="fill:none;stroke:#00aeef;stroke-width:0.69999999;stroke-linecap:butt;stroke-linejoin:miter;stroke-miterlimit:4;stroke-dasharray:none;stroke-opacity:1"
             d="M 0,0 38.568,66.801" /></g><g
           transform="translate(115.7256,13.1113)"
           id="g44"><path
             id="path46"
             style="fill:none;stroke:#231f20;stroke-width:0.69999999;stroke-linecap:butt;stroke-linejoin:miter;stroke-miterlimit:4;stroke-dasharray:none;stroke-opacity:1"
             d="M 0,0 -19.284,44.185" /></g><g
           transform="translate(57.873,14.1826)"
           id="g48"><path
             id="path50"
             style="fill:#000000;fill-opacity:1;fill-rule:nonzero;stroke:none"
             d="m 0,0 c 0.592,0 1.071,-0.48 1.071,-1.071 0,-0.593 -0.479,-1.072 -1.071,-1.072 -0.591,0 -1.071,0.479 -1.071,1.072 C -1.071,-0.48 -0.591,0 0,0" /></g><g
           transform="translate(135.0098,14.1826)"
           id="g52"><path
             id="path54"
             style="fill:#000000;fill-opacity:1;fill-rule:nonzero;stroke:none"
             d="m 0,0 c 0.591,0 1.071,-0.48 1.071,-1.071 0,-0.593 -0.48,-1.072 -1.071,-1.072 -0.592,0 -1.071,0.479 -1.071,1.072 C -1.071,-0.48 -0.592,0 0,0" /></g><g
           transform="translate(115.7256,14.1826)"
           id="g56"><path
             id="path58"
             style="fill:#000000;fill-opacity:1;fill-rule:nonzero;stroke:none"
             d="m 0,0 c 0.591,0 1.071,-0.48 1.071,-1.071 0,-0.593 -0.48,-1.072 -1.071,-1.072 -0.592,0 -1.071,0.479 -1.071,1.072 C -1.071,-0.48 -0.592,0 0,0" /></g><g
           transform="translate(96.4414,59.2246)"
           id="g60"><path
             id="path62"
             style="fill:#ffffff;fill-opacity:1;fill-rule:nonzero;stroke:none"
             d="m 0,0 c 1.064,0 1.929,-0.863 1.929,-1.928 0,-1.065 -0.865,-1.929 -1.929,-1.929 -1.064,0 -1.928,0.864 -1.928,1.929 C -1.928,-0.863 -1.064,0 0,0" /></g><g
           transform="translate(96.4414,59.2246)"
           id="g64"><path
             id="path66"
             style="fill:none;stroke:#000000;stroke-width:0.40000001;stroke-linecap:butt;stroke-linejoin:miter;stroke-miterlimit:4;stroke-dasharray:none;stroke-opacity:1"
             d="m 0,0 c 1.064,0 1.929,-0.863 1.929,-1.928 0,-1.065 -0.865,-1.929 -1.929,-1.929 -1.064,0 -1.928,0.864 -1.928,1.929 C -1.928,-0.863 -1.064,0 0,0 Z" /></g><g
           transform="translate(96.4414,81.8408)"
           id="g68"><path
             id="path70"
             style="fill:#ffffff;fill-opacity:1;fill-rule:nonzero;stroke:none"
             d="m 0,0 c 1.064,0 1.929,-0.863 1.929,-1.928 0,-1.065 -0.865,-1.929 -1.929,-1.929 -1.064,0 -1.928,0.864 -1.928,1.929 C -1.928,-0.863 -1.064,0 0,0" /></g><g
           transform="translate(96.4414,81.8408)"
           id="g72"><path
             id="path74"
             style="fill:none;stroke:#000000;stroke-width:0.40000001;stroke-linecap:butt;stroke-linejoin:miter;stroke-miterlimit:4;stroke-dasharray:2.016, 1.008;stroke-dashoffset:0;stroke-opacity:1"
             d="m 0,0 c 1.064,0 1.929,-0.863 1.929,-1.928 0,-1.065 -0.865,-1.929 -1.929,-1.929 -1.064,0 -1.928,0.864 -1.928,1.929 C -1.928,-0.863 -1.064,0 0,0 Z" /></g><g
           transform="translate(-19.2632,13.1113)"
           id="g76"><path
             id="path78"
             style="fill:none;stroke:#000000;stroke-width:0.69999999;stroke-linecap:butt;stroke-linejoin:miter;stroke-miterlimit:4;stroke-dasharray:none;stroke-opacity:1"
             d="M 0,0 H 162.843" /></g><g
           transform="translate(113.1299,19.0576)"
           id="g80"><path
             id="path82"
             style="fill:none;stroke:#231f20;stroke-width:0.5;stroke-linecap:butt;stroke-linejoin:miter;stroke-miterlimit:4;stroke-dasharray:none;stroke-opacity:1"
             d="m 0,0 c 0.795,0.348 1.673,0.54 2.596,0.54 3.582,0 6.486,-2.904 6.486,-6.486" /></g><g
           transform="translate(61.1182,18.7285)"
           id="g84"><path
             id="path86"
             style="fill:none;stroke:#231f20;stroke-width:0.5;stroke-linecap:butt;stroke-linejoin:miter;stroke-miterlimit:4;stroke-dasharray:none;stroke-opacity:1"
             d="M 0,0 C 1.937,-1.122 3.241,-3.218 3.241,-5.617" /></g><g
           transform="translate(71.4277,17.3682)"
           id="g88"><path
             id="path90"
             style="fill:#231f20;fill-opacity:1;fill-rule:nonzero;stroke:none"
             d="m 0,0 h -4.734 l 0.094,0.255 h 0.197 c 0.121,0.004 0.215,0.012 0.283,0.021 0.131,0.005 0.228,0.025 0.291,0.058 0.049,0.034 0.092,0.08 0.131,0.139 0.019,0.034 0.044,0.085 0.073,0.152 V 0.64 l 1.483,4.32 0.007,0.029 c 0.029,0.068 0.044,0.116 0.044,0.146 0.015,0.062 0.008,0.103 -0.021,0.123 -0.044,0.044 -0.134,0.07 -0.27,0.08 -0.062,0.005 -0.152,0.008 -0.268,0.008 H -2.887 L -2.8,5.6 H 1.812 L 1.403,3.76 H 1.207 C 1.261,4.036 1.295,4.25 1.31,4.399 1.324,4.652 1.3,4.841 1.236,4.967 1.149,5.117 0.991,5.222 0.764,5.28 0.604,5.323 0.395,5.346 0.139,5.346 H -0.916 L -0.945,5.353 C -1.018,5.353 -1.074,5.351 -1.112,5.346 -1.186,5.336 -1.241,5.316 -1.28,5.287 -1.318,5.263 -1.353,5.222 -1.382,5.163 -1.396,5.13 -1.413,5.081 -1.433,5.019 l -0.69,-1.994 h 0.741 c 0.165,0 0.299,0.01 0.401,0.03 0.165,0.033 0.3,0.096 0.407,0.188 0.087,0.073 0.17,0.187 0.247,0.342 0.039,0.088 0.087,0.214 0.145,0.379 l 0.015,0.021 H 0.036 L -0.705,1.811 h -0.211 l 0.007,0.037 c 0.063,0.169 0.099,0.293 0.109,0.37 0.039,0.15 0.039,0.26 0,0.327 C -0.849,2.638 -0.945,2.7 -1.091,2.734 -1.183,2.759 -1.309,2.771 -1.469,2.771 H -2.211 L -2.96,0.582 C -2.989,0.523 -3.004,0.478 -3.004,0.443 -3.018,0.39 -3.016,0.349 -2.996,0.32 -2.972,0.291 -2.929,0.271 -2.865,0.262 -2.821,0.252 -2.766,0.25 -2.698,0.255 h 0.029 1.091 c 0.291,0.004 0.543,0.036 0.757,0.094 0.291,0.068 0.54,0.189 0.749,0.364 0.174,0.155 0.348,0.371 0.523,0.647 0.102,0.16 0.233,0.4 0.393,0.72 l 0.021,0.043 h 0.204 z" /></g><g
           transform="translate(123.0879,24.541)"
           id="g92"><path
             id="path94"
             style="fill:#231f20;fill-opacity:1;fill-rule:nonzero;stroke:none"
             d="M 0,0 C 0.024,0.311 0.017,0.572 -0.021,0.786 -0.08,1.13 -0.221,1.302 -0.443,1.302 -0.579,1.302 -0.718,1.241 -0.858,1.12 -0.96,1.023 -1.057,0.898 -1.149,0.742 -1.343,0.441 -1.508,0.109 -1.644,-0.254 -1.735,-0.502 -1.843,-0.858 -1.964,-1.323 h 1.717 c 0.058,0.271 0.106,0.492 0.145,0.662 0.053,0.242 0.087,0.465 0.102,0.669 z M -2.029,-1.585 C -2.087,-1.809 -2.131,-1.99 -2.16,-2.131 -2.204,-2.301 -2.23,-2.446 -2.24,-2.567 h -0.015 c -0.038,-0.388 -0.048,-0.703 -0.028,-0.946 0.038,-0.464 0.186,-0.698 0.443,-0.698 0.213,0 0.444,0.182 0.691,0.546 0.17,0.247 0.322,0.538 0.459,0.872 0.072,0.189 0.142,0.391 0.21,0.605 0.048,0.183 0.102,0.384 0.16,0.603 z M 0.342,-1.622 C 0.201,-2.106 0.017,-2.558 -0.211,-2.975 -0.424,-3.338 -0.647,-3.641 -0.88,-3.884 c -0.335,-0.334 -0.654,-0.501 -0.96,-0.501 -0.364,0 -0.631,0.203 -0.8,0.611 -0.127,0.291 -0.189,0.647 -0.189,1.069 0,0.32 0.031,0.647 0.095,0.981 0.067,0.311 0.16,0.623 0.276,0.939 0.188,0.533 0.438,1.006 0.749,1.418 0.422,0.562 0.849,0.844 1.28,0.844 C -0.075,1.482 0.189,1.28 0.363,0.873 0.494,0.572 0.56,0.214 0.56,-0.203 0.56,-0.645 0.487,-1.117 0.342,-1.622" /></g><g
           transform="translate(96.4414,19.5977)"
           id="g96"><path
             id="path98"
             style="fill:none;stroke:#000000;stroke-width:0.5;stroke-linecap:butt;stroke-linejoin:miter;stroke-miterlimit:4;stroke-dasharray:none;stroke-opacity:1"
             d="M 0,0 H -6.486 V -6.486" /></g><g
           transform="translate(100.774,63.3497)"
           id="g100"><path
             id="path102"
             style="fill:#231f20;fill-opacity:1;fill-rule:nonzero;stroke:none"
             d="M 0,0 C 0,0 1.111,-0.016 1.823,-0.008 2.447,0 3.414,0.024 3.431,0.024 v 1.12 C 3.423,1.144 2.455,1.136 1.831,1.136 1.12,1.136 0.009,1.12 0,1.12 Z m 1.703,1.551 c 0.903,0.008 2.312,0.056 2.312,0.056 0,-0.008 -0.017,-0.608 -0.017,-0.999 0,-0.392 0.017,-1.008 0.017,-1.008 0,0 -1.192,-0.023 -2.16,-0.016 -0.943,0.008 -2.415,-0.032 -2.415,-0.032 0,0.009 0.008,0.632 0.008,1.032 0,0.392 -0.023,0.991 -0.023,0.999 0,0 1.39,-0.04 2.278,-0.032 m 0.328,-4.061 1.935,0.031 c 0,0 -0.016,-0.479 -0.016,-0.783 0,-0.264 0.016,-0.664 0.016,-0.68 -0.008,0 -1.167,-0.008 -1.919,-0.016 -0.759,-0.008 -1.95,-0.04 -1.95,-0.04 v -0.775 c 0.007,0 1.079,-0.008 1.774,0 1.632,0.016 2.359,0.063 2.367,0.063 v -0.471 h -2.31 c -0.96,0 -2.423,-0.032 -2.455,-0.032 0,0.024 0.015,0.496 0.015,0.784 0,0.399 -0.023,0.839 -0.023,0.863 0.015,0 0.975,-0.008 2.095,-0.008 0.895,0 1.823,0.032 1.823,0.032 v 0.608 c 0,0 -1.064,0.024 -1.743,0.024 -0.856,0 -2.192,-0.048 -2.2,-0.048 v 0.439 h 2.016 v 0.816 c 0,0 -0.96,-0.008 -1.575,-0.016 -0.609,-0.008 -1.56,-0.016 -1.568,-0.016 v 0.496 c 0.024,0 1.087,-0.056 3.526,-0.04 1.632,0.008 3.455,0.056 3.471,0.056 v -0.472 c -0.016,0 -1.008,0.016 -1.648,0.016 -0.64,0 -1.623,-0.008 -1.631,-0.008 z" /></g><g
           transform="translate(113.6197,58.1929)"
           id="g104"><path
             id="path106"
             style="fill:#231f20;fill-opacity:1;fill-rule:nonzero;stroke:none"
             d="M 0,0 C 0,-0.192 -0.168,-0.168 -0.344,-0.184 -0.464,-0.192 -0.6,-0.2 -0.6,-0.104 c 0,0 0.033,2.526 0.04,3.614 0.008,1.631 -0.015,3.422 -0.015,3.43 0.008,0.008 0.439,-0.008 0.543,-0.024 0.192,-0.032 0.056,-0.264 0.056,-0.36 0,0 -0.032,-1.895 -0.04,-3.11 C -0.024,2.103 0.016,0.008 0,0 m -1.432,6.756 c 0.168,-0.024 0.073,-0.152 0.073,-0.264 0,0 -0.033,-1.279 -0.033,-2.598 0,-1.096 0.017,-3.398 0.017,-3.398 0,-0.201 -0.176,-0.168 -0.368,-0.185 -0.128,-0.007 -0.232,0 -0.232,0.097 -0.008,0 0.048,1.135 0.04,1.511 -0.008,0.368 0.008,1.423 0.008,1.431 0,0 -0.208,-0.016 -0.536,-0.008 C -2.83,3.35 -3.174,3.326 -3.183,3.326 v 0.512 c 0.009,0 0.416,-0.024 0.712,-0.024 0.281,0 0.528,0.008 0.536,0.008 0,0 0.016,0.743 0.008,1.311 -0.008,0.464 -0.016,1.631 -0.016,1.647 0.008,0.008 0.36,0 0.511,-0.024 M -5.157,6.204 c 0.008,0 0.256,-0.024 0.807,-0.024 0.512,0 0.8,0.024 0.8,0.024 V 5.708 c -0.016,0 -0.536,0.017 -0.815,0.017 -0.288,0 -0.792,-0.017 -0.792,-0.017 z m 0.783,-1.247 c 0.656,0 1.632,0.024 1.632,0.024 V 4.478 c 0,0 -0.368,0.015 -0.664,0.015 H -3.95 c 0,0 -0.136,-0.623 0.072,-1.079 0.424,-0.911 1.079,-1.359 1.079,-1.359 0.032,-0.04 0.177,-0.088 0.017,-0.2 -0.048,-0.032 -0.313,-0.272 -0.313,-0.272 0,0 -0.399,0.296 -0.767,0.775 -0.32,0.416 -0.455,0.808 -0.455,0.808 0,0 -0.193,-0.392 -0.64,-0.888 -0.496,-0.551 -0.976,-0.799 -0.976,-0.799 0,0 -0.288,0.272 -0.351,0.312 -0.168,0.112 0.04,0.136 0.08,0.167 0,0 0.463,0.177 1.079,0.944 0.663,0.824 0.623,1.591 0.623,1.591 h -0.695 c -0.312,0 -0.808,-0.015 -0.808,-0.015 v 0.503 c 0.008,0 0.872,-0.024 1.631,-0.024" /></g><g
           transform="translate(106.4934,4.8138)"
           id="g108"><path
             id="path110"
             style="fill:#231f20;fill-opacity:1;fill-rule:nonzero;stroke:none"
             d="m 0,0 c -0.384,0 -1.959,-0.088 -1.959,-0.791 0,-0.664 1.567,-0.696 1.951,-0.704 C 0.447,-1.503 2.03,-1.455 2.03,-0.8 2.03,-0.088 0.456,0 0,0 m 0.032,4.966 c 1.159,0.008 2.678,0.04 2.687,0.04 V 4.485 c -0.009,0 -0.728,0.033 -1.256,0.04 -0.48,0.008 -1.135,0 -1.144,0 0,-0.007 -0.04,-0.351 0.6,-0.855 C 1.711,3.047 2.814,2.998 2.822,2.99 2.91,2.959 3.198,3.038 2.935,2.807 2.87,2.751 2.719,2.503 2.71,2.503 2.702,2.503 1.591,2.574 0.72,3.223 0.191,3.614 0.072,3.942 0.072,3.942 0.064,3.934 -0.168,3.422 -1.031,2.927 -1.711,2.535 -2.654,2.486 -2.663,2.486 c -0.008,0 -0.207,0.265 -0.287,0.336 -0.225,0.208 0.048,0.113 0.168,0.145 0,0 0.799,0.015 1.575,0.424 0.871,0.455 0.919,1.119 0.927,1.134 0,0 -0.543,0.025 -1.159,0 -0.48,-0.015 -1.263,-0.04 -1.263,-0.04 v 0.521 c 0.016,0 1.631,-0.049 2.734,-0.04 m 2.59,-5.757 C 2.631,-1.951 0.447,-1.959 0,-1.959 c -0.344,0 -2.543,0.008 -2.543,1.168 0,1.239 1.967,1.215 2.215,1.239 0.008,0 0.008,0.959 0.008,0.967 0,0 -0.759,0.009 -1.367,0 -0.68,-0.008 -1.735,-0.056 -1.744,-0.056 v 0.512 c 0.009,0 1.871,-0.04 3.471,-0.04 1.119,0 3.534,0.04 3.55,0.04 V 1.359 c 0,0 -0.959,0.041 -1.568,0.056 -0.647,0.017 -1.726,0 -1.734,0 0,-0.008 -0.009,-0.967 0,-0.967 0.272,-0.016 2.326,0 2.334,-1.239" /></g><g
           transform="translate(117.3157,9.9232)"
           id="g112"><path
             id="path114"
             style="fill:#231f20;fill-opacity:1;fill-rule:nonzero;stroke:none"
             d="M 0,0 C 0.168,-0.048 0.032,-0.168 0.032,-0.376 0.032,-0.392 0.024,-1.407 0.016,-2.207 0.008,-2.998 0.04,-4.206 0.04,-4.214 l -0.6,-0.023 c 0,0.015 0.024,1.438 0.024,2.062 0,1.575 -0.056,2.198 -0.056,2.207 C -0.584,0.04 -0.128,0.032 0,0 m -4.166,-5.821 c 0,-0.24 0.017,-0.608 0.017,-0.623 0,0 0.838,-0.04 1.566,-0.04 0.704,0 2.031,0.023 2.047,0.023 0,0.017 0.016,0.36 0.016,0.584 0,0.312 -0.016,0.783 -0.016,0.792 -0.008,0 -1.239,0 -1.95,-0.009 -0.744,-0.008 -1.656,-0.023 -1.663,-0.023 0,-0.008 -0.017,-0.432 -0.017,-0.704 m 1.632,1.16 c 0.943,0 2.582,0.048 2.582,0.048 0,-0.008 -0.008,-0.76 0,-1.28 0.008,-0.696 0.04,-1.215 0.04,-1.215 l -0.6,-0.016 -0.032,0.16 c -0.008,0 -1.047,0.016 -2.015,0.024 -0.624,0.007 -1.583,-0.024 -1.59,-0.024 l -0.048,-0.168 h -0.544 c 0,0.008 0.023,0.759 0.015,1.239 -0.007,0.76 -0.023,1.223 -0.023,1.232 z m -0.92,4.237 c 0.216,-0.032 -0.024,-0.24 -0.032,-0.296 -0.008,-0.088 -0.088,-0.424 -0.088,-0.487 0,-0.088 0.08,-0.608 0.735,-1.376 0.584,-0.688 1.208,-0.991 1.2,-1.007 0.079,-0.064 -0.04,-0.128 -0.136,-0.2 -0.12,-0.088 -0.216,-0.216 -0.232,-0.231 0,0 -0.464,0.247 -1.023,0.838 -0.592,0.624 -0.768,1.136 -0.768,1.144 -0.008,-0.016 -0.271,-0.663 -0.848,-1.264 -0.487,-0.511 -1.079,-0.879 -1.086,-0.886 -0.025,-0.008 -0.273,0.191 -0.401,0.263 -0.191,0.104 -0.103,0.064 0,0.152 0,0.016 0.632,0.248 1.4,1.2 0.767,0.951 0.671,2.215 0.671,2.222 0,0 0.464,-0.047 0.608,-0.072" /></g><g
           transform="translate(125.6116,3.0072)"
           id="g116"><path
             id="path118"
             style="fill:#231f20;fill-opacity:1;fill-rule:nonzero;stroke:none"
             d="M 0,0 C 0,-0.192 -0.168,-0.168 -0.344,-0.185 -0.464,-0.192 -0.6,-0.2 -0.6,-0.105 c 0,0 0.033,2.528 0.04,3.615 0.008,1.631 -0.016,3.422 -0.016,3.429 0.009,0.009 0.44,-0.007 0.544,-0.023 0.192,-0.032 0.056,-0.264 0.056,-0.359 0,0 -0.032,-1.896 -0.04,-3.111 C -0.025,2.102 0.016,0.008 0,0 m -1.432,6.756 c 0.168,-0.024 0.073,-0.152 0.073,-0.264 0,0 -0.033,-1.279 -0.033,-2.598 0,-1.096 0.017,-3.399 0.017,-3.399 0,-0.199 -0.176,-0.168 -0.368,-0.184 -0.128,-0.007 -0.232,0 -0.232,0.096 -0.008,0 0.048,1.136 0.04,1.512 -0.008,0.367 0.008,1.423 0.008,1.431 0,0 -0.208,-0.016 -0.536,-0.008 C -2.83,3.35 -3.174,3.326 -3.183,3.326 v 0.512 c 0.009,0 0.416,-0.025 0.712,-0.025 0.28,0 0.528,0.008 0.536,0.008 0,0 0.016,0.744 0.008,1.312 -0.008,0.464 -0.016,1.631 -0.016,1.647 0.008,0.008 0.36,0 0.511,-0.024 M -5.157,6.204 c 0.007,0 0.256,-0.023 0.807,-0.023 0.512,0 0.8,0.023 0.8,0.023 V 5.709 c -0.017,0 -0.536,0.016 -0.815,0.016 -0.288,0 -0.792,-0.016 -0.792,-0.016 z m 0.783,-1.247 c 0.656,0 1.632,0.024 1.632,0.024 V 4.477 c 0,0 -0.368,0.016 -0.664,0.016 H -3.95 c 0,0 -0.136,-0.624 0.072,-1.079 0.424,-0.912 1.079,-1.359 1.079,-1.359 0.032,-0.04 0.176,-0.088 0.017,-0.201 -0.048,-0.032 -0.313,-0.271 -0.313,-0.271 0,0 -0.399,0.296 -0.767,0.775 -0.32,0.416 -0.455,0.808 -0.455,0.808 0,0 -0.193,-0.392 -0.64,-0.888 -0.496,-0.551 -0.976,-0.799 -0.976,-0.799 0,0 -0.288,0.272 -0.351,0.312 -0.168,0.111 0.04,0.136 0.079,0.168 0,0 0.464,0.176 1.08,0.943 0.663,0.824 0.623,1.591 0.623,1.591 h -0.695 c -0.312,0 -0.808,-0.016 -0.808,-0.016 v 0.504 c 0.008,0 0.872,-0.024 1.631,-0.024" /></g></g></g></g></svg>