<?xml version="1.0" encoding="UTF-8" standalone="no"?>
<svg
   xmlns:dc="http://purl.org/dc/elements/1.1/"
   xmlns:cc="http://creativecommons.org/ns#"
   xmlns:rdf="http://www.w3.org/1999/02/22-rdf-syntax-ns#"
   xmlns:svg="http://www.w3.org/2000/svg"
   xmlns="http://www.w3.org/2000/svg"
   viewBox="0 0 229.33333 227.03999"
   height="227.03999"
   width="229.33333"
   xml:space="preserve"
   id="svg2"
   version="1.1"><metadata
     id="metadata8"><rdf:RDF><cc:Work
         rdf:about=""><dc:format>image/svg+xml</dc:format><dc:type
           rdf:resource="http://purl.org/dc/dcmitype/StillImage" /></cc:Work></rdf:RDF></metadata><defs
     id="defs6"><clipPath
       id="clipPath18"
       clipPathUnits="userSpaceOnUse"><path
         id="path16"
         d="M 0,170.28 H 172 V 0 H 0 Z" /></clipPath><clipPath
       id="clipPath42"
       clipPathUnits="userSpaceOnUse"><path
         id="path40"
         d="M 39,168.811 H 169.33 V 38.4707 H 39 Z" /></clipPath><clipPath
       id="clipPath130"
       clipPathUnits="userSpaceOnUse"><path
         id="path128"
         d="m 80.5,137.971 h 71.33 V 69.9307 H 80.5 Z" /></clipPath></defs><g
     transform="matrix(1.3333333,0,0,-1.3333333,0,227.04)"
     id="g10"><g
       id="g12"><g
         clip-path="url(#clipPath18)"
         id="g14"><g
           transform="translate(60.4385,36.041)"
           id="g20"><path
             id="path22"
             style="fill:none;stroke:#231f20;stroke-width:0.5;stroke-linecap:butt;stroke-linejoin:miter;stroke-miterlimit:10;stroke-dasharray:none;stroke-opacity:1"
             d="M 0,0 C -22.13,14.346 -36.771,39.262 -36.771,67.599" /></g><g
           transform="translate(59.6909,36.54)"
           id="g24"><path
             id="path26"
             style="fill:#231f20;fill-opacity:1;fill-rule:nonzero;stroke:none"
             d="m 0,0 -1.882,-0.95 0.03,-0.068 3.111,-0.562 2.963,-1.049 c -0.75,0.733 -1.499,1.464 -2.249,2.196 L 0.096,2.11 0.027,2.116 Z" /></g><g
           transform="translate(115.2734,6.2617)"
           id="g28"><path
             id="path30"
             style="fill:none;stroke:#231f20;stroke-width:0.5;stroke-linecap:butt;stroke-linejoin:miter;stroke-miterlimit:10;stroke-dasharray:none;stroke-opacity:1"
             d="m 0,0 c -3.645,-0.411 -7.352,-0.622 -11.106,-0.622 -54.124,0 -98,43.876 -98,98" /></g><g
           transform="translate(114.373,6.2295)"
           id="g32"><path
             id="path34"
             style="fill:#231f20;fill-opacity:1;fill-rule:nonzero;stroke:none"
             d="m 0,0 -0.881,-1.915 0.066,-0.033 2.784,1.497 C 2.959,-0.11 3.95,0.231 4.94,0.573 3.897,0.679 2.855,0.785 1.812,0.891 l -3.051,0.82 -0.058,-0.037 z" /></g><g
           id="g36"><g
             id="g38" /><g
             id="g70"><g
               id="g68"
               clip-path="url(#clipPath42)"><g
                 id="g46"
                 transform="translate(104.1699,103.6406)"><path
                   id="path44"
                   style="fill:#bcbec0;fill-opacity:1;fill-rule:nonzero;stroke:none"
                   d="m 0,0 v -0.01 l -32.59,-56.44 c -9.89,5.72 -18.14,13.97 -23.85,23.86 z" /></g><g
                 id="g50"
                 transform="translate(136.7598,47.2002)"><path
                   id="path48"
                   style="fill:#bcbec0;fill-opacity:1;fill-rule:nonzero;stroke:none"
                   d="m 0,0 v -0.01 c -9.59,-5.55 -20.72,-8.719 -32.59,-8.719 v 65.16 z" /></g><g
                 id="g54"
                 transform="translate(104.1699,103.6406)"><path
                   id="path52"
                   style="fill:#bcbec0;fill-opacity:1;fill-rule:nonzero;stroke:none"
                   d="m 0,0 h 65.16 c 0,-11.88 -3.17,-23.01 -8.72,-32.59 z" /></g><g
                 id="g58"
                 transform="translate(160.6104,136.2305)"><path
                   id="path56"
                   style="fill:#bcbec0;fill-opacity:1;fill-rule:nonzero;stroke:none"
                   d="m 0,0 -56.431,-32.58 32.58,56.43 v 0.01 C -13.971,18.14 -5.721,9.89 0,0" /></g><g
                 id="g62"
                 transform="translate(104.1699,168.8105)"><path
                   id="path60"
                   style="fill:#bcbec0;fill-opacity:1;fill-rule:nonzero;stroke:none"
                   d="m 0,0 v -65.17 l -32.59,56.44 v 0.01 C -23,-3.17 -11.87,0 0,0" /></g><g
                 id="g66"
                 transform="translate(39,103.6406)"><path
                   id="path64"
                   style="fill:#bcbec0;fill-opacity:1;fill-rule:nonzero;stroke:none"
                   d="M 0,0 C 0,11.87 3.18,23 8.73,32.59 L 65.17,0 Z" /></g></g></g></g><g
           transform="translate(39,103.6406)"
           id="g72"><path
             id="path74"
             style="fill:none;stroke:#231f20;stroke-width:0.5;stroke-linecap:butt;stroke-linejoin:miter;stroke-miterlimit:10;stroke-dasharray:none;stroke-opacity:1"
             d="m 0,0 c 0,-11.88 3.18,-23.01 8.73,-32.59 5.71,-9.89 13.96,-18.14 23.85,-23.86 9.59,-5.55 20.72,-8.72 32.59,-8.72 11.87,0 23,3.17 32.59,8.72 9.88,5.72 18.13,13.97 23.85,23.86 5.55,9.58 8.72,20.71 8.72,32.59 0,11.88 -3.17,23.01 -8.72,32.59 -5.72,9.89 -13.97,18.14 -23.85,23.86 C 88.17,62 77.04,65.17 65.17,65.17 53.3,65.17 42.17,62 32.58,56.45 22.69,50.73 14.44,42.48 8.73,32.59 3.18,23 0,11.87 0,0 Z" /></g><g
           transform="translate(104.1699,103.6406)"
           id="g76"><path
             id="path78"
             style="fill:none;stroke:#231f20;stroke-width:0.5;stroke-linecap:butt;stroke-linejoin:miter;stroke-miterlimit:10;stroke-dasharray:none;stroke-opacity:1"
             d="M 0,0 V 65.17" /></g><g
           transform="translate(104.1699,38.4707)"
           id="g80"><path
             id="path82"
             style="fill:none;stroke:#231f20;stroke-width:0.5;stroke-linecap:butt;stroke-linejoin:miter;stroke-miterlimit:10;stroke-dasharray:none;stroke-opacity:1"
             d="M 0,0 V 65.16" /></g><g
           transform="translate(169.3301,103.6406)"
           id="g84"><path
             id="path86"
             style="fill:none;stroke:#231f20;stroke-width:0.5;stroke-linecap:butt;stroke-linejoin:miter;stroke-miterlimit:10;stroke-dasharray:none;stroke-opacity:1"
             d="m 0,0 h -65.16 -65.17" /></g><g
           transform="translate(104.1797,103.6504)"
           id="g88"><path
             id="path90"
             style="fill:none;stroke:#231f20;stroke-width:0.5;stroke-linecap:butt;stroke-linejoin:miter;stroke-miterlimit:10;stroke-dasharray:none;stroke-opacity:1"
             d="M 0,0 56.431,32.58" /></g><g
           transform="translate(47.7202,71.0508)"
           id="g92"><path
             id="path94"
             style="fill:none;stroke:#231f20;stroke-width:0.5;stroke-linecap:butt;stroke-linejoin:miter;stroke-miterlimit:10;stroke-dasharray:none;stroke-opacity:1"
             d="M 0,0 H 0.01 L 56.45,32.59" /></g><g
           transform="translate(104.1699,103.6406)"
           id="g96"><path
             id="path98"
             style="fill:none;stroke:#231f20;stroke-width:0.5;stroke-linecap:butt;stroke-linejoin:miter;stroke-miterlimit:10;stroke-dasharray:none;stroke-opacity:1"
             d="M 0,0 0.01,0.01 32.59,56.44" /></g><g
           transform="translate(71.5801,47.1904)"
           id="g100"><path
             id="path102"
             style="fill:none;stroke:#231f20;stroke-width:0.5;stroke-linecap:butt;stroke-linejoin:miter;stroke-miterlimit:10;stroke-dasharray:none;stroke-opacity:1"
             d="M 0,0 32.59,56.44" /></g><g
           transform="translate(71.5801,160.0806)"
           id="g104"><path
             id="path106"
             style="fill:none;stroke:#231f20;stroke-width:0.5;stroke-linecap:butt;stroke-linejoin:miter;stroke-miterlimit:10;stroke-dasharray:none;stroke-opacity:1"
             d="m 0,0 32.59,-56.44 v -0.01 l 32.59,-56.43" /></g><g
           transform="translate(47.7202,136.2305)"
           id="g108"><path
             id="path110"
             style="fill:none;stroke:#231f20;stroke-width:0.5;stroke-linecap:butt;stroke-linejoin:miter;stroke-miterlimit:10;stroke-dasharray:none;stroke-opacity:1"
             d="m 0,0 h 0.01 l 56.44,-32.59 56.44,-32.59 h 0.01" /></g><g
           transform="translate(39,103.6401)"
           id="g112"><path
             id="path114"
             style="fill:none;stroke:#231f20;stroke-width:0.5;stroke-linecap:butt;stroke-linejoin:miter;stroke-miterlimit:10;stroke-dasharray:none;stroke-opacity:1"
             d="M 0,0 H -1" /></g><g
           transform="translate(37.0317,103.6401)"
           id="g116"><path
             id="path118"
             style="fill:none;stroke:#231f20;stroke-width:0.5;stroke-linecap:butt;stroke-linejoin:miter;stroke-miterlimit:10;stroke-dasharray:1.937, 0.968;stroke-dashoffset:0;stroke-opacity:1"
             d="M 0,0 H -34.38" /></g><g
           transform="translate(2.167,103.6401)"
           id="g120"><path
             id="path122"
             style="fill:none;stroke:#231f20;stroke-width:0.5;stroke-linecap:butt;stroke-linejoin:miter;stroke-miterlimit:10;stroke-dasharray:none;stroke-opacity:1"
             d="M 0,0 H -1" /></g><g
           id="g124"><g
             id="g126" /><g
             id="g158"><g
               id="g156"
               clip-path="url(#clipPath130)"><g
                 id="g134"
                 transform="translate(104.1699,103.6406)"><path
                   id="path132"
                   style="fill:#00aeef;fill-opacity:1;fill-rule:nonzero;stroke:none"
                   d="m 0,0 5.271,-33.71 c -7.661,1.4 -14.451,5.16 -19.521,10.46 z" /></g><g
                 id="g138"
                 transform="translate(141.0195,79.0205)"><path
                   id="path136"
                   style="fill:#00aeef;fill-opacity:1;fill-rule:nonzero;stroke:none"
                   d="M 0,0 0.011,-0.01 C -3.72,-3.49 -8.25,-6.21 -13.279,-7.86 L -36.85,24.62 Z" /></g><g
                 id="g142"
                 transform="translate(104.1699,103.6406)"><path
                   id="path140"
                   style="fill:#00aeef;fill-opacity:1;fill-rule:nonzero;stroke:none"
                   d="m 0,0 h 47.66 c 0,-4.74 -1,-9.25 -2.79,-13.35 h -0.01 z" /></g><g
                 id="g146"
                 transform="translate(148.79,117.5308)"><path
                   id="path144"
                   style="fill:#00aeef;fill-opacity:1;fill-rule:nonzero;stroke:none"
                   d="m 0,0 -44.62,-13.89 36.16,25.25 v 0.01 C -4.89,8.19 -1.99,4.33 0,0" /></g><g
                 id="g150"
                 transform="translate(116.1699,137.9707)"><path
                   id="path148"
                   style="fill:#00aeef;fill-opacity:1;fill-rule:nonzero;stroke:none"
                   d="M 0,0 C 3.69,0 7.24,-0.54 10.59,-1.54 L -12,-34.33 -8.07,-0.88 C -5.47,-0.3 -2.77,0 0,0" /></g><g
                 id="g154"
                 transform="translate(89.6797,126.6309)"><path
                   id="path152"
                   style="fill:#00aeef;fill-opacity:1;fill-rule:nonzero;stroke:none"
                   d="M 0,0 14.49,-22.99 H -9.18 c 0,8.84 3.471,16.9 9.18,22.99" /></g></g></g></g><g
           transform="translate(149.0303,90.2905)"
           id="g160"><path
             id="path162"
             style="fill:none;stroke:#231f20;stroke-width:0.5;stroke-linecap:butt;stroke-linejoin:miter;stroke-miterlimit:10;stroke-dasharray:none;stroke-opacity:1"
             d="m 0,0 c -1.87,-4.27 -4.61,-8.09 -8,-11.28 -3.73,-3.48 -8.261,-6.2 -13.29,-7.85 -3.63,-1.2 -7.521,-1.85 -11.57,-1.85 -2.3,0 -4.55,0.21 -6.73,0.62 -7.66,1.401 -14.45,5.16 -19.52,10.46 -5.85,6.12 -9.42,14.28 -9.42,23.25 0,8.84 3.47,16.9 9.179,22.99 4.801,5.12 11.191,8.85 18.42,10.46 2.601,0.58 5.301,0.88 8.071,0.88 3.69,0 7.24,-0.54 10.589,-1.54 5.111,-1.52 9.731,-4.13 13.571,-7.53 3.57,-3.18 6.47,-7.04 8.46,-11.37 C 1.71,22.99 2.8,18.29 2.8,13.35 2.8,8.61 1.8,4.1 0.01,0" /></g><g
           transform="translate(104.1699,103.6406)"
           id="g164"><path
             id="path166"
             style="fill:none;stroke:#231f20;stroke-width:0.5;stroke-linecap:butt;stroke-linejoin:miter;stroke-miterlimit:10;stroke-dasharray:none;stroke-opacity:1"
             d="m 0,0 5.271,-33.71 v -0.01" /></g><g
           transform="translate(89.9199,80.3906)"
           id="g168"><path
             id="path170"
             style="fill:none;stroke:#231f20;stroke-width:0.5;stroke-linecap:butt;stroke-linejoin:miter;stroke-miterlimit:10;stroke-dasharray:none;stroke-opacity:1"
             d="M 0,0 14.25,23.25" /></g><g
           transform="translate(104.1699,103.6406)"
           id="g172"><path
             id="path174"
             style="fill:none;stroke:#231f20;stroke-width:0.5;stroke-linecap:butt;stroke-linejoin:miter;stroke-miterlimit:10;stroke-dasharray:none;stroke-opacity:1"
             d="M 0,0 -14.49,22.99" /></g><g
           transform="translate(104.1699,103.6406)"
           id="g176"><path
             id="path178"
             style="fill:none;stroke:#231f20;stroke-width:0.5;stroke-linecap:butt;stroke-linejoin:miter;stroke-miterlimit:10;stroke-dasharray:none;stroke-opacity:1"
             d="M 0,0 3.93,33.45" /></g><g
           transform="translate(104.1699,103.6406)"
           id="g180"><path
             id="path182"
             style="fill:none;stroke:#231f20;stroke-width:0.5;stroke-linecap:butt;stroke-linejoin:miter;stroke-miterlimit:10;stroke-dasharray:none;stroke-opacity:1"
             d="M 0,0 22.59,32.79" /></g><g
           transform="translate(104.1699,103.6406)"
           id="g184"><path
             id="path186"
             style="fill:none;stroke:#231f20;stroke-width:0.5;stroke-linecap:butt;stroke-linejoin:miter;stroke-miterlimit:10;stroke-dasharray:none;stroke-opacity:1"
             d="M 0,0 36.16,25.25" /></g><g
           transform="translate(104.1699,103.6406)"
           id="g188"><path
             id="path190"
             style="fill:none;stroke:#231f20;stroke-width:0.5;stroke-linecap:butt;stroke-linejoin:miter;stroke-miterlimit:10;stroke-dasharray:none;stroke-opacity:1"
             d="M 0,0 44.62,13.89" /></g><g
           transform="translate(104.1699,103.6406)"
           id="g192"><path
             id="path194"
             style="fill:none;stroke:#231f20;stroke-width:0.5;stroke-linecap:butt;stroke-linejoin:miter;stroke-miterlimit:10;stroke-dasharray:none;stroke-opacity:1"
             d="m 0,0 44.86,-13.35 h 0.01" /></g><g
           transform="translate(104.1699,103.6406)"
           id="g196"><path
             id="path198"
             style="fill:none;stroke:#231f20;stroke-width:0.5;stroke-linecap:butt;stroke-linejoin:miter;stroke-miterlimit:10;stroke-dasharray:none;stroke-opacity:1"
             d="M 0,0 36.85,-24.62" /></g><g
           transform="translate(104.1699,103.6406)"
           id="g200"><path
             id="path202"
             style="fill:none;stroke:#231f20;stroke-width:0.5;stroke-linecap:butt;stroke-linejoin:miter;stroke-miterlimit:10;stroke-dasharray:none;stroke-opacity:1"
             d="M 0,0 23.57,-32.48" /></g><g
           transform="translate(104.1699,103.6406)"
           id="g204"><path
             id="path206"
             style="fill:none;stroke:#231f20;stroke-width:0.5;stroke-linecap:butt;stroke-linejoin:miter;stroke-miterlimit:10;stroke-dasharray:none;stroke-opacity:1"
             d="M 0,0 H -23.67" /></g><g
           transform="translate(151.8301,103.6406)"
           id="g208"><path
             id="path210"
             style="fill:none;stroke:#231f20;stroke-width:0.5;stroke-linecap:butt;stroke-linejoin:miter;stroke-miterlimit:10;stroke-dasharray:none;stroke-opacity:1"
             d="M 0,0 H -47.66" /></g><g
           transform="translate(128.4229,12.4932)"
           id="g212"><path
             id="path214"
             style="fill:#231f20;fill-opacity:1;fill-rule:nonzero;stroke:none"
             d="M 0,0 C 0.023,1.599 -0.032,2.847 -0.032,2.854 -0.024,2.862 0.344,2.862 0.527,2.838 0.703,2.814 0.552,2.646 0.552,2.494 0.552,2.486 0.535,1.295 0.544,0.136 0.552,-0.775 0.615,-2.551 0.6,-2.559 0.6,-2.727 0.399,-2.694 0.264,-2.703 0.144,-2.711 -0.024,-2.719 -0.024,-2.646 -0.032,-2.646 -0.017,-0.983 0,0 m -3.91,-2.151 c 0.24,-0.04 0.064,-0.184 0.064,-0.336 V -3.07 -3.63 c 0.016,0 0.975,-0.009 1.975,0.008 1.224,0.023 2.702,0.063 2.702,0.063 V -4.11 c -0.008,0 -1.767,0.032 -2.822,0.032 -0.871,0 -2.471,-0.032 -2.487,-0.032 0,0.008 0.016,0.544 0.016,0.887 0,0.449 -0.016,1.144 -0.016,1.144 0.008,0.008 0.344,-0.032 0.568,-0.072 m 0.807,4.406 c 0.856,-0.009 2.143,0.023 2.151,0.023 V 1.751 c -0.016,0 -0.455,0 -0.807,0.016 -0.392,0.016 -1,0 -1.008,0 0,-0.008 -0.168,-0.576 0.336,-1.408 0.52,-0.863 1.408,-1.159 1.408,-1.167 0.055,-0.047 0.295,-0.056 0.08,-0.2 -0.073,-0.048 -0.313,-0.304 -0.321,-0.304 -0.007,0 -0.416,0.104 -1.167,0.776 -0.4,0.36 -0.687,1.103 -0.687,1.103 0,-0.007 -0.137,-0.471 -0.72,-1.095 -0.559,-0.6 -1.191,-0.904 -1.199,-0.911 -0.009,-0.008 -0.328,0.231 -0.433,0.295 -0.183,0.121 0.065,0.136 0.129,0.184 0,0 0.648,0.24 1.279,1.008 0.736,0.895 0.656,1.703 0.656,1.719 0,0 -0.448,0.007 -0.944,0 C -4.758,1.759 -5.262,1.751 -5.262,1.751 v 0.527 c 0.017,0 1.08,-0.015 2.159,-0.023" /></g><g
           transform="translate(132.377,10.5576)"
           id="g216"><path
             id="path218"
             style="fill:#231f20;fill-opacity:1;fill-rule:nonzero;stroke:none"
             d="m 0,0 v -1.398 c 0,0 0.911,-0.04 2.07,-0.033 1.432,0.008 2.448,0.056 2.455,0.056 V -1.862 C 4.518,-1.862 3.15,-1.879 2.15,-1.87 1.104,-1.862 -0.52,-1.887 -0.527,-1.887 v 1.975 c 0,0.232 -0.017,0.368 -0.017,0.376 0.017,0.008 0.328,-0.031 0.48,-0.04 C 0.224,0.408 0,0.28 0,0 M 1.814,4.166 C 2.838,4.174 4.43,4.19 4.437,4.19 4.437,4.19 4.51,4.206 4.229,2.823 4.078,2.087 3.941,1.56 3.934,1.535 h 0.727 c 0.424,0 0.712,0.025 0.735,0.025 V 1.063 C 5.389,1.063 2.694,1.096 0.968,1.071 -0.336,1.056 -1.631,0.992 -1.655,0.992 v 0.503 c 0.015,0 1.703,-0.023 2.799,-0.008 1.407,0.017 2.206,0.033 2.222,0.033 0.008,0.015 0.168,0.456 0.312,1.126 0.152,0.72 0.144,1.096 0.144,1.104 0,0 -1.072,0.017 -2.135,0 C 0.6,3.734 -0.783,3.687 -0.8,3.687 v 0.487 c 0,0 1.335,-0.016 2.614,-0.008" /></g><g
           transform="translate(144.9502,14.876)"
           id="g220"><path
             id="path222"
             style="fill:#231f20;fill-opacity:1;fill-rule:nonzero;stroke:none"
             d="M 0,0 C 0,-0.009 0.008,-0.544 0.017,-1.72 0.024,-3.087 0.032,-3.694 0.032,-3.719 L -0.544,-3.75 c 0,0.016 0.017,0.432 0.017,0.72 0,0.863 -0.008,1.039 -0.008,1.054 -0.009,0 -0.488,0.017 -0.752,0.017 -0.336,0 -0.856,-0.024 -0.863,-0.024 v 0.479 c 0.007,0 0.519,-0.031 0.847,-0.023 0.384,0.007 0.768,0.015 0.776,0.015 0,0.008 0,0.416 -0.008,1.432 0,0.319 -0.025,0.552 -0.025,0.552 0,0 0.416,-0.017 0.537,-0.033 C 0.216,0.415 0,0.279 0,0 m -2.646,-4.598 c -0.824,0 -1.872,-0.024 -1.887,-0.024 v -1.375 c 0.008,0 1.231,-0.032 2.047,-0.024 0.823,0.008 1.942,0.008 1.951,0.008 v 1.367 c -0.025,0 -1.336,0.048 -2.111,0.048 m 0.015,0.408 h 2.655 c 0,-0.008 0,-0.456 -0.007,-1.351 -0.009,-0.656 0.023,-1.071 0.023,-1.08 l -0.575,-0.016 -0.025,0.176 c -0.024,0 -1.135,0.008 -1.919,0.017 -0.735,0.007 -2.014,0 -2.014,0 l -0.025,-0.16 -0.567,-0.008 c 0,0.008 0.008,0.431 0.016,1.31 0.007,0.624 -0.016,1.12 -0.016,1.144 0,0 1.423,-0.032 2.454,-0.032 M -3.91,0.008 c 1.288,0.008 1.88,0.048 1.888,0.048 V -0.48 c -0.017,0 -0.424,0.016 -0.752,0.016 -0.32,0 -0.808,-0.016 -0.816,-0.016 0,-0.008 -0.08,-0.728 0.36,-1.479 0.528,-0.895 1.543,-1.224 1.535,-1.231 0.056,-0.048 -0.152,-0.128 -0.256,-0.241 -0.096,-0.103 -0.159,-0.168 -0.176,-0.183 -0.008,0 -0.607,0.248 -1.167,0.847 -0.416,0.44 -0.592,1.104 -0.592,1.104 0,-0.009 -0.135,-0.512 -0.727,-1.128 -0.504,-0.527 -1.272,-0.951 -1.28,-0.951 -0.007,0.008 -0.112,0.08 -0.208,0.191 -0.103,0.12 -0.255,0.16 -0.191,0.208 0,0 0.927,0.384 1.503,1.119 0.68,0.872 0.575,1.736 0.575,1.752 0,0 -0.351,0.032 -0.848,0.032 -0.327,0 -0.838,-0.008 -0.838,-0.008 V 0.04 c 0.015,0 0.711,-0.04 1.99,-0.032" /></g><g
           transform="translate(156.127,15.3232)"
           id="g224"><path
             id="path226"
             style="fill:#231f20;fill-opacity:1;fill-rule:nonzero;stroke:none"
             d="m 0,0 c 0.207,-0.04 0.071,-0.176 0.071,-0.424 0,-0.015 0.017,-2.35 0.008,-3.086 -0.008,-0.559 0.025,-3.614 0.025,-3.614 l -0.6,-0.063 c 0,0.007 0.016,2.709 0.016,3.549 0,3.174 -0.016,2.231 -0.048,3.662 C -0.521,0.032 -0.112,0.024 0,0 m -5.237,-3.294 c -0.017,-1.176 0.511,-1.983 1.359,-1.967 0.976,0.016 1.239,1.016 1.232,1.967 -0.009,1.407 -0.665,1.959 -1.336,1.942 -0.768,-0.015 -1.24,-0.663 -1.255,-1.942 m 3.166,0.023 c 0,-1.23 -0.4,-2.494 -1.887,-2.461 -1.376,0.031 -1.855,1.239 -1.871,2.478 -0.017,1.263 0.615,2.383 1.863,2.374 1.255,-0.008 1.895,-1.039 1.895,-2.391" /></g><g
           transform="translate(163.2949,14.8516)"
           id="g228"><path
             id="path230"
             style="fill:#231f20;fill-opacity:1;fill-rule:nonzero;stroke:none"
             d="M 0,0 C 0,0.28 -0.023,0.472 -0.023,0.496 -0.016,0.504 0.312,0.472 0.439,0.456 0.68,0.424 0.527,0.264 0.527,0.088 0.536,0.056 0.52,-0.472 0.52,-0.831 c 0,-0.384 0.007,-0.968 0.007,-0.983 0.009,0 0.416,0 0.689,0.007 0.223,0.008 0.575,0.016 0.583,0.016 v -0.487 c -0.008,0 -0.344,0.007 -0.672,0.007 -0.231,0 -0.591,-0.024 -0.6,-0.024 0,-0.008 -0.015,-0.399 -0.015,-0.655 0,-0.273 0.008,-0.688 0.008,-0.688 l -0.536,-0.024 c 0,0 0.048,0.895 0.016,3.662 m -1.814,-4.086 c 0.911,0.008 2.318,0.017 2.334,0.017 0,-0.017 -0.008,-0.808 0,-1.327 0.007,-0.473 0.024,-1.208 0.024,-1.216 l -0.552,-0.016 c 0,0.024 0.016,0.648 0.016,1.064 0,0.407 -0.016,1.039 -0.016,1.046 -0.008,0 -1.143,0.008 -1.871,0 -0.903,-0.007 -2.318,-0.032 -2.327,-0.032 v 0.464 c 0,0 1.456,-0.008 2.392,0 m -1.728,4.07 h 1.911 c 0,-0.007 -0.032,-1.431 -1.327,-2.638 -0.96,-0.896 -2.087,-1.312 -2.095,-1.312 -0.009,0.008 -0.104,0.088 -0.184,0.193 -0.072,0.087 -0.264,0.175 -0.176,0.231 0,0 1.351,0.408 2.223,1.335 0.839,0.895 0.96,1.751 0.96,1.76 -0.017,0 -0.88,-0.009 -1.448,-0.017 -0.559,-0.008 -1.424,-0.023 -1.439,-0.023 v 0.471 z" /></g><g
           transform="translate(7.127,110.3076)"
           id="g232"><path
             id="path234"
             style="fill:#231f20;fill-opacity:1;fill-rule:nonzero;stroke:none"
             d="m 0,0 v -1.398 c 0,0 0.911,-0.04 2.07,-0.033 1.432,0.008 2.448,0.056 2.455,0.056 V -1.862 C 4.518,-1.862 3.15,-1.879 2.15,-1.87 1.104,-1.862 -0.52,-1.887 -0.527,-1.887 v 1.975 c 0,0.232 -0.017,0.368 -0.017,0.376 0.017,0.008 0.328,-0.031 0.48,-0.04 C 0.224,0.408 0,0.28 0,0 M 1.814,4.166 C 2.838,4.174 4.43,4.19 4.437,4.19 4.437,4.19 4.51,4.206 4.229,2.823 4.078,2.087 3.941,1.56 3.934,1.535 h 0.727 c 0.424,0 0.712,0.025 0.735,0.025 V 1.063 C 5.389,1.063 2.694,1.096 0.968,1.071 -0.336,1.056 -1.631,0.992 -1.655,0.992 v 0.503 c 0.015,0 1.703,-0.023 2.799,-0.008 1.407,0.017 2.206,0.033 2.222,0.033 0.008,0.015 0.168,0.456 0.312,1.126 0.152,0.72 0.144,1.096 0.144,1.104 0,0 -1.072,0.017 -2.135,0 C 0.6,3.734 -0.783,3.687 -0.8,3.687 v 0.487 c 0,0 1.335,-0.016 2.614,-0.008" /></g><g
           transform="translate(19.5879,115.0654)"
           id="g236"><path
             id="path238"
             style="fill:#231f20;fill-opacity:1;fill-rule:nonzero;stroke:none"
             d="m 0,0 c 0.32,-0.032 0.152,-0.152 0.152,-0.384 0,-0.008 -0.015,-0.895 -0.015,-1.463 0,-0.792 0.031,-2.023 0.031,-2.023 h -0.6 c 0,0.016 0.017,1.239 0.017,2.031 0,0.728 -0.024,1.855 -0.024,1.871 C -0.432,0.04 -0.167,0.016 0,0 m -2.19,-6.973 c -0.976,-0.007 -2.471,0 -2.463,0 0,0.009 0.016,0.504 0.016,0.737 0,0.439 -0.008,0.863 -0.008,0.863 0.016,0 1.063,-0.024 2.183,-0.024 0.896,0 2.023,0.024 2.023,0.024 v 0.687 c 0,0 -1.288,0.033 -2.111,0.025 C -3.397,-4.67 -4.725,-4.71 -4.732,-4.71 v 0.464 c 0.007,0 0.687,-0.024 2.198,-0.024 1.111,0 2.679,0.024 2.686,0.024 0,0 -0.007,-0.472 -0.007,-0.775 0,-0.289 0.023,-0.728 0.023,-0.744 -0.008,0 -1.551,-0.007 -2.542,-0.007 -0.728,0 -1.688,-0.025 -1.688,-0.025 V -6.54 c 0.008,0 0.64,-0.017 1.824,-0.017 1.631,0 2.518,0.056 2.526,0.056 v -0.495 c -0.008,0 -1.511,0.032 -2.478,0.023 m -2.966,4.878 c 0.015,-0.664 0.663,-1.023 1.318,-1.055 0.704,-0.033 1.456,0.336 1.464,1.063 0.008,0.703 -0.607,1.119 -1.415,1.111 -0.832,-0.007 -1.384,-0.431 -1.367,-1.119 m 3.342,0.008 c -0.016,-1.039 -0.912,-1.495 -1.944,-1.487 -0.959,0 -1.95,0.471 -1.934,1.527 0.015,0.911 0.743,1.463 1.854,1.487 1.2,0.024 2.039,-0.536 2.024,-1.527" /></g><g
           transform="translate(27.7002,114.626)"
           id="g240"><path
             id="path242"
             style="fill:#231f20;fill-opacity:1;fill-rule:nonzero;stroke:none"
             d="M 0,0 C 0,-0.009 0.008,-0.544 0.017,-1.72 0.024,-3.087 0.032,-3.694 0.032,-3.719 L -0.544,-3.75 c 0,0.016 0.017,0.432 0.017,0.72 0,0.863 -0.008,1.039 -0.008,1.054 -0.009,0 -0.488,0.017 -0.752,0.017 -0.336,0 -0.856,-0.024 -0.863,-0.024 v 0.479 c 0.007,0 0.519,-0.031 0.847,-0.023 0.384,0.007 0.768,0.015 0.776,0.015 0,0.008 0,0.416 -0.008,1.432 0,0.319 -0.025,0.552 -0.025,0.552 0,0 0.416,-0.017 0.537,-0.033 C 0.216,0.415 0,0.279 0,0 m -2.646,-4.598 c -0.824,0 -1.872,-0.024 -1.887,-0.024 v -1.375 c 0.008,0 1.231,-0.032 2.047,-0.024 0.823,0.008 1.942,0.008 1.951,0.008 v 1.367 c -0.025,0 -1.336,0.048 -2.111,0.048 m 0.015,0.408 h 2.655 c 0,-0.008 0,-0.456 -0.007,-1.351 -0.009,-0.656 0.023,-1.071 0.023,-1.08 l -0.575,-0.016 -0.025,0.176 c -0.024,0 -1.135,0.008 -1.919,0.017 -0.735,0.007 -2.014,0 -2.014,0 l -0.025,-0.16 -0.567,-0.008 c 0,0.008 0.008,0.431 0.016,1.31 0.007,0.624 -0.016,1.12 -0.016,1.144 0,0 1.423,-0.032 2.454,-0.032 M -3.91,0.008 c 1.288,0.008 1.88,0.048 1.888,0.048 V -0.48 c -0.017,0 -0.424,0.016 -0.752,0.016 -0.32,0 -0.808,-0.016 -0.816,-0.016 0,-0.008 -0.08,-0.728 0.36,-1.479 0.528,-0.895 1.543,-1.224 1.535,-1.231 0.056,-0.048 -0.152,-0.128 -0.256,-0.241 -0.096,-0.103 -0.159,-0.168 -0.176,-0.183 -0.008,0 -0.607,0.248 -1.167,0.847 -0.416,0.44 -0.592,1.104 -0.592,1.104 0,-0.009 -0.135,-0.512 -0.727,-1.128 -0.504,-0.527 -1.272,-0.951 -1.28,-0.951 -0.007,0.008 -0.112,0.08 -0.208,0.191 -0.103,0.12 -0.255,0.16 -0.191,0.208 0,0 0.927,0.384 1.503,1.119 0.68,0.872 0.575,1.736 0.575,1.752 0,0 -0.351,0.032 -0.848,0.032 -0.327,0 -0.838,-0.008 -0.838,-0.008 V 0.04 c 0.015,0 0.711,-0.04 1.99,-0.032" /></g><g
           transform="translate(73.7041,32.0742)"
           id="g244"><path
             id="path246"
             style="fill:#231f20;fill-opacity:1;fill-rule:nonzero;stroke:none"
             d="m 0,0 c 0.32,0 0.12,-0.184 0.12,-0.416 0.008,-0.031 -0.016,-1.143 -0.016,-1.791 0,-0.759 0.016,-2.351 0.016,-2.358 h -0.632 c 0,0.007 0.04,0.479 0.048,0.792 0.009,0.247 0.009,0.623 0.009,0.63 0,0 -0.456,0.025 -0.744,0.025 -0.256,0 -0.64,-0.025 -0.648,-0.025 v 0.464 c 0.016,0 0.44,-0.015 0.72,-0.015 0.264,0 0.663,0.015 0.672,0.015 v 0.816 c -0.009,0 -0.353,0.016 -0.632,0.016 -0.296,0 -0.744,-0.016 -0.752,-0.016 v 0.471 c 0,0 0.424,-0.031 0.695,-0.031 0.273,0 0.68,0.024 0.689,0.024 0,0.007 0.016,0.616 0,0.967 C -0.464,-0.256 -0.479,0 -0.479,0.024 -0.479,0.024 -0.184,0 0,0 m -4.558,-5.868 c 0.017,-0.624 1.104,-0.784 2.079,-0.784 1.528,0 1.992,0.376 2,0.784 0.007,0.671 -1.072,0.806 -2.063,0.799 -1.216,-0.008 -2.031,-0.176 -2.016,-0.799 m 4.686,0 C 0.097,-6.765 -0.896,-7.084 -2.494,-7.1 c -1.352,-0.016 -2.599,0.272 -2.631,1.24 -0.032,1.047 1.352,1.207 2.591,1.222 1.518,0.025 2.694,-0.303 2.662,-1.23 m -3.974,5.381 c 1.24,0 1.992,0.048 2.007,0.048 v -0.497 c -0.015,0 -1.167,0.008 -1.951,0.008 -1.543,0 -1.95,-0.048 -1.959,-0.048 v 0.504 c 0,0 0.648,-0.015 1.903,-0.015 m -0.743,-1.072 c 0.232,0 0.088,-0.176 0.104,-0.336 0.007,-0.016 0.055,-0.591 0.088,-0.847 0.04,-0.312 0.104,-0.784 0.104,-0.808 0.008,0 0.247,-0.008 0.407,0 0.224,0.008 0.52,0.032 0.528,0.032 0,0 0.088,0.512 0.152,1.015 0.08,0.649 0.096,0.96 0.096,0.968 0.007,0.008 0.328,-0.032 0.536,-0.064 0.256,-0.04 0.032,-0.215 0.008,-0.36 0,-0.008 -0.048,-0.296 -0.096,-0.6 -0.056,-0.368 -0.145,-0.919 -0.145,-0.935 0.009,0 0.241,0.016 0.393,0.024 0.344,0.024 0.583,0.048 0.6,0.048 l 0.08,-0.456 c -0.017,0 -0.456,-0.072 -2.136,-0.136 -1.503,-0.055 -1.623,-0.063 -1.654,-0.055 -0.168,-0.008 -0.329,-0.185 -0.409,0.119 -0.032,0.137 -0.088,0.36 -0.08,0.376 0.017,0 0.321,-0.016 0.52,-0.024 0.288,-0.007 0.672,0.033 0.672,0.033 0,0 -0.073,0.59 -0.12,0.966 -0.08,0.592 -0.152,1.024 -0.152,1.032 0.008,0.008 0.304,0.008 0.504,0.008" /></g><g
           transform="translate(77.0752,26.501)"
           id="g248"><path
             id="path250"
             style="fill:#231f20;fill-opacity:1;fill-rule:nonzero;stroke:none"
             d="m 0,0 -0.009,-0.967 c 0,0 0.936,0 2.096,0.008 1.431,0.008 2.566,0.032 2.574,0.032 v -0.456 c -0.008,0 -1.359,-0.008 -2.358,0 -1.104,0.008 -2.824,-0.04 -2.831,-0.04 0,0.008 0.024,0.608 0.007,1.495 C -0.528,0.305 -0.536,0.393 -0.536,0.4 -0.528,0.408 -0.176,0.376 -0.032,0.36 0.168,0.336 0,0.248 0,0 m 1.975,5.214 c 0.999,0.008 2.558,0.023 2.566,0.023 0,0 -0.063,-0.519 -0.256,-1.367 C 4.125,3.167 4.054,2.942 4.046,2.919 4.054,2.919 4.485,2.887 4.765,2.911 5.101,2.935 5.493,2.942 5.517,2.942 V 2.447 C 5.509,2.447 4.957,2.471 4.605,2.471 4.134,2.479 3.414,2.455 3.397,2.455 c 0,-0.008 0.009,-0.703 0,-1.863 0,-0.208 0.025,-0.528 0.025,-0.535 L 2.886,-0.008 v 0.536 1.935 c -0.008,0 -0.48,0.016 -0.791,0.016 -0.304,0 -0.752,-0.032 -0.776,-0.032 0,0 -0.032,-0.632 -0.008,-1.607 C 1.319,0.624 1.303,0.384 1.303,0.376 L 0.768,0.336 c 0,0 0.007,0.248 0.015,0.48 0.032,1.015 0,1.599 0,1.623 -0.008,0 -0.687,0.008 -1.127,0 C -0.8,2.431 -1.479,2.407 -1.504,2.407 v 0.504 c 0.017,0 1.695,-0.032 2.783,-0.032 0.864,0 2.206,0.023 2.223,0.023 C 3.51,2.919 3.613,3.207 3.75,3.83 3.894,4.47 3.918,4.79 3.918,4.798 3.894,4.798 2.926,4.782 1.862,4.782 0.903,4.782 -0.584,4.758 -0.6,4.758 v 0.456 c 0.032,0 1.567,-0.009 2.575,0" /></g><g
           transform="translate(88.4111,27.3086)"
           id="g252"><path
             id="path254"
             style="fill:#231f20;fill-opacity:1;fill-rule:nonzero;stroke:none"
             d="m 0,0 v -1.398 c 0,0 0.911,-0.04 2.07,-0.033 1.432,0.008 2.448,0.056 2.455,0.056 V -1.862 C 4.518,-1.862 3.15,-1.879 2.15,-1.87 1.104,-1.862 -0.52,-1.887 -0.528,-1.887 v 1.975 c 0,0.232 -0.016,0.368 -0.016,0.376 0.016,0.008 0.328,-0.031 0.48,-0.04 C 0.224,0.408 0,0.28 0,0 M 1.814,4.166 C 2.838,4.174 4.43,4.19 4.437,4.19 4.437,4.19 4.51,4.206 4.229,2.823 4.077,2.087 3.941,1.56 3.934,1.535 h 0.727 c 0.424,0 0.712,0.025 0.735,0.025 V 1.063 C 5.389,1.063 2.694,1.096 0.968,1.071 -0.336,1.056 -1.631,0.992 -1.655,0.992 v 0.503 c 0.015,0 1.703,-0.023 2.799,-0.008 1.407,0.017 2.206,0.033 2.222,0.033 0.008,0.015 0.168,0.456 0.312,1.126 0.152,0.72 0.143,1.096 0.143,1.104 0,0 -1.071,0.017 -2.134,0 C 0.6,3.734 -0.784,3.687 -0.8,3.687 v 0.487 c 0,0 1.335,-0.016 2.614,-0.008" /></g><g
           transform="translate(100.9844,31.627)"
           id="g256"><path
             id="path258"
             style="fill:#231f20;fill-opacity:1;fill-rule:nonzero;stroke:none"
             d="M 0,0 C 0,-0.009 0.008,-0.544 0.016,-1.72 0.024,-3.087 0.032,-3.694 0.032,-3.719 L -0.544,-3.75 c 0,0.016 0.017,0.432 0.017,0.72 0,0.863 -0.008,1.039 -0.008,1.054 -0.009,0 -0.488,0.017 -0.752,0.017 -0.336,0 -0.856,-0.024 -0.863,-0.024 v 0.479 c 0.007,0 0.519,-0.031 0.847,-0.023 0.384,0.007 0.768,0.015 0.776,0.015 0,0.008 0,0.416 -0.008,1.432 0,0.319 -0.025,0.552 -0.025,0.552 0,0 0.416,-0.017 0.537,-0.033 C 0.216,0.415 0,0.279 0,0 m -2.646,-4.598 c -0.824,0 -1.872,-0.024 -1.887,-0.024 v -1.375 c 0.008,0 1.231,-0.032 2.047,-0.024 0.823,0.008 1.942,0.008 1.951,0.008 v 1.367 c -0.025,0 -1.336,0.048 -2.111,0.048 m 0.015,0.408 h 2.655 c 0,-0.008 0,-0.456 -0.008,-1.351 -0.008,-0.656 0.024,-1.071 0.024,-1.08 l -0.575,-0.016 -0.025,0.176 c -0.024,0 -1.135,0.008 -1.919,0.017 -0.735,0.007 -2.014,0 -2.014,0 l -0.025,-0.16 -0.567,-0.008 c 0,0.008 0.008,0.431 0.016,1.31 0.007,0.624 -0.016,1.12 -0.016,1.144 0,0 1.423,-0.032 2.454,-0.032 M -3.91,0.008 c 1.288,0.008 1.879,0.048 1.888,0.048 V -0.48 c -0.017,0 -0.424,0.016 -0.752,0.016 -0.32,0 -0.808,-0.016 -0.816,-0.016 0,-0.008 -0.08,-0.728 0.36,-1.479 0.528,-0.895 1.543,-1.224 1.535,-1.231 0.056,-0.048 -0.152,-0.128 -0.256,-0.241 -0.096,-0.103 -0.159,-0.168 -0.176,-0.183 -0.008,0 -0.607,0.248 -1.167,0.847 -0.416,0.44 -0.592,1.104 -0.592,1.104 0,-0.009 -0.135,-0.512 -0.727,-1.128 -0.504,-0.527 -1.272,-0.951 -1.28,-0.951 -0.007,0.008 -0.112,0.08 -0.208,0.191 -0.103,0.12 -0.255,0.16 -0.191,0.208 0,0 0.927,0.384 1.503,1.119 0.68,0.872 0.575,1.736 0.575,1.752 0,0 -0.351,0.032 -0.848,0.032 -0.327,0 -0.838,-0.008 -0.838,-0.008 V 0.04 c 0.015,0 0.711,-0.04 1.99,-0.032" /></g><g
           transform="translate(83.3604,22.4746)"
           id="g260"><path
             id="path262"
             style="fill:#231f20;fill-opacity:1;fill-rule:nonzero;stroke:none"
             d="m 0,0 c 0.207,-0.04 0.071,-0.176 0.071,-0.424 0,-0.015 0.017,-2.35 0.008,-3.086 -0.008,-0.559 0.025,-3.614 0.025,-3.614 l -0.6,-0.063 c 0,0.007 0.016,2.709 0.016,3.549 0,3.174 -0.016,2.231 -0.048,3.662 C -0.521,0.032 -0.112,0.024 0,0 m -5.237,-3.294 c -0.017,-1.176 0.511,-1.983 1.359,-1.967 0.975,0.016 1.239,1.016 1.231,1.967 -0.008,1.407 -0.664,1.959 -1.335,1.942 -0.768,-0.015 -1.24,-0.663 -1.255,-1.942 m 3.166,0.023 c 0,-1.23 -0.4,-2.494 -1.887,-2.461 -1.375,0.031 -1.855,1.239 -1.871,2.478 -0.016,1.263 0.615,2.383 1.863,2.374 1.255,-0.008 1.895,-1.039 1.895,-2.391" /></g><g
           transform="translate(90.5283,22.0029)"
           id="g264"><path
             id="path266"
             style="fill:#231f20;fill-opacity:1;fill-rule:nonzero;stroke:none"
             d="M 0,0 C 0,0.28 -0.024,0.472 -0.024,0.496 -0.016,0.504 0.312,0.472 0.439,0.456 0.68,0.424 0.527,0.264 0.527,0.088 0.536,0.056 0.52,-0.472 0.52,-0.831 c 0,-0.384 0.007,-0.968 0.007,-0.983 0.009,0 0.416,0 0.689,0.007 0.223,0.008 0.575,0.016 0.583,0.016 v -0.487 c -0.008,0 -0.344,0.007 -0.671,0.007 -0.232,0 -0.592,-0.024 -0.601,-0.024 0,-0.008 -0.015,-0.399 -0.015,-0.655 0,-0.273 0.008,-0.688 0.008,-0.688 l -0.536,-0.024 c 0,0 0.048,0.895 0.016,3.662 m -1.815,-4.086 c 0.912,0.008 2.319,0.017 2.335,0.017 0,-0.017 -0.008,-0.808 0,-1.327 0.007,-0.473 0.024,-1.208 0.024,-1.216 l -0.552,-0.016 c 0,0.024 0.016,0.648 0.016,1.064 0,0.407 -0.016,1.039 -0.016,1.046 -0.008,0 -1.143,0.008 -1.871,0 -0.903,-0.007 -2.318,-0.032 -2.327,-0.032 v 0.464 c 0,0 1.456,-0.008 2.391,0 m -1.727,4.07 h 1.911 c 0,-0.007 -0.032,-1.431 -1.327,-2.638 -0.96,-0.896 -2.087,-1.312 -2.095,-1.312 -0.009,0.008 -0.104,0.088 -0.184,0.193 -0.072,0.087 -0.264,0.175 -0.176,0.231 0,0 1.351,0.408 2.223,1.335 0.839,0.895 0.96,1.751 0.96,1.76 -0.017,0 -0.88,-0.009 -1.448,-0.017 -0.559,-0.008 -1.424,-0.023 -1.439,-0.023 v 0.471 z" /></g><g
           transform="translate(60.2891,27.6416)"
           id="g268"><path
             id="path270"
             style="fill:none;stroke:#231f20;stroke-width:0.5;stroke-linecap:butt;stroke-linejoin:miter;stroke-miterlimit:10;stroke-dasharray:none;stroke-opacity:1"
             d="M 0,0 0.5,0.866" /></g><g
           transform="translate(61.2568,29.3174)"
           id="g272"><path
             id="path274"
             style="fill:none;stroke:#231f20;stroke-width:0.5;stroke-linecap:butt;stroke-linejoin:miter;stroke-miterlimit:10;stroke-dasharray:1.871, 0.935;stroke-dashoffset:0;stroke-opacity:1"
             d="M 0,0 9.588,16.606" /></g><g
           transform="translate(71.0786,46.3291)"
           id="g276"><path
             id="path278"
             style="fill:none;stroke:#231f20;stroke-width:0.5;stroke-linecap:butt;stroke-linejoin:miter;stroke-miterlimit:10;stroke-dasharray:none;stroke-opacity:1"
             d="M 0,0 0.5,0.866" /></g><g
           transform="translate(109.4424,69.9209)"
           id="g280"><path
             id="path282"
             style="fill:none;stroke:#231f20;stroke-width:0.5;stroke-linecap:butt;stroke-linejoin:miter;stroke-miterlimit:10;stroke-dasharray:none;stroke-opacity:1"
             d="M 0,0 0.154,-0.988" /></g><g
           transform="translate(109.7549,67.9258)"
           id="g284"><path
             id="path286"
             style="fill:none;stroke:#231f20;stroke-width:0.5;stroke-linecap:butt;stroke-linejoin:miter;stroke-miterlimit:10;stroke-dasharray:2.039, 1.02;stroke-dashoffset:0;stroke-opacity:1"
             d="M 0,0 9.846,-62.96" /></g><g
           transform="translate(119.6797,4.4629)"
           id="g288"><path
             id="path290"
             style="fill:none;stroke:#231f20;stroke-width:0.5;stroke-linecap:butt;stroke-linejoin:miter;stroke-miterlimit:10;stroke-dasharray:none;stroke-opacity:1"
             d="M 0,0 0.154,-0.988" /></g><g
           transform="translate(106.667,103.6406)"
           id="g292"><path
             id="path294"
             style="fill:#ffffff;fill-opacity:1;fill-rule:nonzero;stroke:none"
             d="M 0,0 C 0,-1.381 -1.12,-2.5 -2.5,-2.5 -3.88,-2.5 -5,-1.381 -5,0 -5,1.381 -3.88,2.5 -2.5,2.5 -1.12,2.5 0,1.381 0,0" /></g><g
           transform="translate(106.667,103.6406)"
           id="g296"><path
             id="path298"
             style="fill:none;stroke:#231f20;stroke-width:0.5;stroke-linecap:butt;stroke-linejoin:miter;stroke-miterlimit:10;stroke-dasharray:none;stroke-opacity:1"
             d="M 0,0 C 0,-1.381 -1.12,-2.5 -2.5,-2.5 -3.88,-2.5 -5,-1.381 -5,0 -5,1.381 -3.88,2.5 -2.5,2.5 -1.12,2.5 0,1.381 0,0 Z" /></g></g></g></g></svg>